G04 #@! TF.GenerationSoftware,KiCad,Pcbnew,7.0.8*
G04 #@! TF.CreationDate,2023-10-22T13:22:11+01:00*
G04 #@! TF.ProjectId,Badge,42616467-652e-46b6-9963-61645f706362,rev?*
G04 #@! TF.SameCoordinates,Original*
G04 #@! TF.FileFunction,Copper,L2,Bot*
G04 #@! TF.FilePolarity,Positive*
%FSLAX46Y46*%
G04 Gerber Fmt 4.6, Leading zero omitted, Abs format (unit mm)*
G04 Created by KiCad (PCBNEW 7.0.8) date 2023-10-22 13:22:11*
%MOMM*%
%LPD*%
G01*
G04 APERTURE LIST*
G04 #@! TA.AperFunction,ComponentPad*
%ADD10R,1.600000X1.600000*%
G04 #@! TD*
G04 #@! TA.AperFunction,ComponentPad*
%ADD11C,1.600000*%
G04 #@! TD*
G04 #@! TA.AperFunction,ComponentPad*
%ADD12C,1.400000*%
G04 #@! TD*
G04 #@! TA.AperFunction,ComponentPad*
%ADD13O,1.400000X1.400000*%
G04 #@! TD*
G04 #@! TA.AperFunction,SMDPad,CuDef*
%ADD14R,5.100000X5.100000*%
G04 #@! TD*
G04 #@! TA.AperFunction,SMDPad,CuDef*
%ADD15C,17.800000*%
G04 #@! TD*
G04 #@! TA.AperFunction,ComponentPad*
%ADD16R,1.050000X1.500000*%
G04 #@! TD*
G04 #@! TA.AperFunction,ComponentPad*
%ADD17O,1.050000X1.500000*%
G04 #@! TD*
G04 #@! TA.AperFunction,ComponentPad*
%ADD18C,1.800000*%
G04 #@! TD*
G04 #@! TA.AperFunction,ComponentPad*
%ADD19R,1.800000X1.800000*%
G04 #@! TD*
G04 #@! TA.AperFunction,ViaPad*
%ADD20C,0.800000*%
G04 #@! TD*
G04 #@! TA.AperFunction,Conductor*
%ADD21C,0.250000*%
G04 #@! TD*
G04 APERTURE END LIST*
D10*
X134874000Y-51054000D03*
D11*
X137374000Y-51054000D03*
D10*
X90342323Y-51054000D03*
D11*
X92842323Y-51054000D03*
D12*
X148590000Y-33528000D03*
D13*
X148590000Y-41148000D03*
D12*
X80264000Y-33782000D03*
D13*
X80264000Y-41402000D03*
D14*
X102262000Y-53848000D03*
X127862000Y-53848000D03*
D15*
X115062000Y-53848000D03*
D13*
X148590000Y-50546000D03*
D12*
X148590000Y-58166000D03*
D16*
X138684000Y-61468000D03*
D17*
X137414000Y-61468000D03*
X136144000Y-61468000D03*
D18*
X80269000Y-29972000D03*
D19*
X82809000Y-29972000D03*
D18*
X148590000Y-29972000D03*
D19*
X146050000Y-29972000D03*
D18*
X80269000Y-61976000D03*
D19*
X82809000Y-61976000D03*
D13*
X80264000Y-50800000D03*
D12*
X80264000Y-58420000D03*
D13*
X145288000Y-49784000D03*
D12*
X145288000Y-42164000D03*
D16*
X93980000Y-61976000D03*
D17*
X92710000Y-61976000D03*
X91440000Y-61976000D03*
D13*
X83566000Y-50546000D03*
D12*
X83566000Y-42926000D03*
D19*
X146050000Y-61722000D03*
D18*
X148590000Y-61722000D03*
D20*
X128016000Y-58420000D03*
X102108000Y-58166000D03*
D21*
X137999773Y-57072199D02*
G75*
G03*
X137414000Y-58486427I1414227J-1414201D01*
G01*
X91439997Y-52980104D02*
G75*
G03*
X90854213Y-51565890I-1999997J4D01*
G01*
X137999787Y-57072213D02*
X145288000Y-49784000D01*
X137414000Y-61468000D02*
X137414000Y-58486427D01*
X90854213Y-51565890D02*
X90342323Y-51054000D01*
X91440000Y-61976000D02*
X91440000Y-52980104D01*
X127862000Y-58012000D02*
X127862000Y-53848000D01*
X102262000Y-58012000D02*
X102262000Y-53848000D01*
G04 #@! TA.AperFunction,Conductor*
G36*
X150057039Y-27197685D02*
G01*
X150102794Y-27250489D01*
X150114000Y-27302000D01*
X150114000Y-29368514D01*
X150094315Y-29435553D01*
X150041511Y-29481308D01*
X149972353Y-29491252D01*
X149908797Y-29462227D01*
X149876444Y-29418324D01*
X149825924Y-29303151D01*
X149698983Y-29108852D01*
X149698980Y-29108849D01*
X149698979Y-29108847D01*
X149541784Y-28938087D01*
X149541779Y-28938083D01*
X149541777Y-28938081D01*
X149358634Y-28795535D01*
X149358628Y-28795531D01*
X149154504Y-28685064D01*
X149154495Y-28685061D01*
X148934984Y-28609702D01*
X148744450Y-28577908D01*
X148706049Y-28571500D01*
X148473951Y-28571500D01*
X148435550Y-28577908D01*
X148245015Y-28609702D01*
X148025504Y-28685061D01*
X148025495Y-28685064D01*
X147821371Y-28795531D01*
X147821365Y-28795535D01*
X147638222Y-28938081D01*
X147638218Y-28938085D01*
X147638216Y-28938086D01*
X147638216Y-28938087D01*
X147629870Y-28947154D01*
X147629866Y-28947158D01*
X147569979Y-28983148D01*
X147500141Y-28981047D01*
X147442525Y-28941522D01*
X147422455Y-28906507D01*
X147393797Y-28829671D01*
X147393793Y-28829664D01*
X147307547Y-28714455D01*
X147307544Y-28714452D01*
X147192335Y-28628206D01*
X147192328Y-28628202D01*
X147057482Y-28577908D01*
X147057483Y-28577908D01*
X146997883Y-28571501D01*
X146997881Y-28571500D01*
X146997873Y-28571500D01*
X146997864Y-28571500D01*
X145102129Y-28571500D01*
X145102123Y-28571501D01*
X145042516Y-28577908D01*
X144907671Y-28628202D01*
X144907664Y-28628206D01*
X144792455Y-28714452D01*
X144792452Y-28714455D01*
X144706206Y-28829664D01*
X144706202Y-28829671D01*
X144655908Y-28964517D01*
X144649501Y-29024116D01*
X144649501Y-29024123D01*
X144649500Y-29024135D01*
X144649500Y-30919870D01*
X144649501Y-30919876D01*
X144655908Y-30979483D01*
X144706202Y-31114328D01*
X144706206Y-31114335D01*
X144792452Y-31229544D01*
X144792455Y-31229547D01*
X144907664Y-31315793D01*
X144907671Y-31315797D01*
X145042517Y-31366091D01*
X145042516Y-31366091D01*
X145049444Y-31366835D01*
X145102127Y-31372500D01*
X146997872Y-31372499D01*
X147057483Y-31366091D01*
X147192331Y-31315796D01*
X147307546Y-31229546D01*
X147393796Y-31114331D01*
X147415575Y-31055939D01*
X147422455Y-31037493D01*
X147464326Y-30981559D01*
X147529790Y-30957141D01*
X147598063Y-30971992D01*
X147629866Y-30996843D01*
X147635046Y-31002469D01*
X147638215Y-31005912D01*
X147638222Y-31005918D01*
X147821365Y-31148464D01*
X147821371Y-31148468D01*
X147821374Y-31148470D01*
X148025497Y-31258936D01*
X148104419Y-31286030D01*
X148245015Y-31334297D01*
X148245017Y-31334297D01*
X148245019Y-31334298D01*
X148473951Y-31372500D01*
X148473952Y-31372500D01*
X148706048Y-31372500D01*
X148706049Y-31372500D01*
X148934981Y-31334298D01*
X149154503Y-31258936D01*
X149358626Y-31148470D01*
X149541784Y-31005913D01*
X149698979Y-30835153D01*
X149825924Y-30640849D01*
X149876444Y-30525674D01*
X149921400Y-30472189D01*
X149988136Y-30451499D01*
X150055464Y-30470174D01*
X150102007Y-30522284D01*
X150114000Y-30575485D01*
X150114000Y-61118514D01*
X150094315Y-61185553D01*
X150041511Y-61231308D01*
X149972353Y-61241252D01*
X149908797Y-61212227D01*
X149876444Y-61168324D01*
X149825924Y-61053151D01*
X149698983Y-60858852D01*
X149698980Y-60858849D01*
X149698979Y-60858847D01*
X149541784Y-60688087D01*
X149541779Y-60688083D01*
X149541777Y-60688081D01*
X149358634Y-60545535D01*
X149358628Y-60545531D01*
X149154504Y-60435064D01*
X149154495Y-60435061D01*
X148934984Y-60359702D01*
X148740003Y-60327166D01*
X148706049Y-60321500D01*
X148473951Y-60321500D01*
X148439997Y-60327166D01*
X148245015Y-60359702D01*
X148025504Y-60435061D01*
X148025495Y-60435064D01*
X147821371Y-60545531D01*
X147821365Y-60545535D01*
X147638222Y-60688081D01*
X147638218Y-60688085D01*
X147638216Y-60688086D01*
X147638216Y-60688087D01*
X147637320Y-60689061D01*
X147629866Y-60697158D01*
X147569979Y-60733148D01*
X147500141Y-60731047D01*
X147442525Y-60691522D01*
X147422455Y-60656507D01*
X147393797Y-60579671D01*
X147393793Y-60579664D01*
X147307547Y-60464455D01*
X147307544Y-60464452D01*
X147192335Y-60378206D01*
X147192328Y-60378202D01*
X147057482Y-60327908D01*
X147057483Y-60327908D01*
X146997883Y-60321501D01*
X146997881Y-60321500D01*
X146997873Y-60321500D01*
X146997864Y-60321500D01*
X145102129Y-60321500D01*
X145102123Y-60321501D01*
X145042516Y-60327908D01*
X144907671Y-60378202D01*
X144907664Y-60378206D01*
X144792455Y-60464452D01*
X144792452Y-60464455D01*
X144706206Y-60579664D01*
X144706202Y-60579671D01*
X144655908Y-60714517D01*
X144649501Y-60774116D01*
X144649500Y-60774135D01*
X144649500Y-62669870D01*
X144649501Y-62669876D01*
X144655908Y-62729483D01*
X144706202Y-62864328D01*
X144706206Y-62864335D01*
X144792452Y-62979544D01*
X144792455Y-62979547D01*
X144907664Y-63065793D01*
X144907671Y-63065797D01*
X145042517Y-63116091D01*
X145042516Y-63116091D01*
X145049444Y-63116835D01*
X145102127Y-63122500D01*
X146997872Y-63122499D01*
X147057483Y-63116091D01*
X147192331Y-63065796D01*
X147307546Y-62979546D01*
X147393796Y-62864331D01*
X147393798Y-62864326D01*
X147422455Y-62787493D01*
X147464326Y-62731559D01*
X147529790Y-62707141D01*
X147598063Y-62721992D01*
X147629866Y-62746843D01*
X147636376Y-62753914D01*
X147638215Y-62755912D01*
X147638222Y-62755918D01*
X147821365Y-62898464D01*
X147821371Y-62898468D01*
X147821374Y-62898470D01*
X147878984Y-62929647D01*
X148010553Y-63000849D01*
X148025497Y-63008936D01*
X148139487Y-63048068D01*
X148245015Y-63084297D01*
X148245017Y-63084297D01*
X148245019Y-63084298D01*
X148473951Y-63122500D01*
X148473952Y-63122500D01*
X148706048Y-63122500D01*
X148706049Y-63122500D01*
X148934981Y-63084298D01*
X148938209Y-63083190D01*
X148969866Y-63072322D01*
X149154503Y-63008936D01*
X149358626Y-62898470D01*
X149541784Y-62755913D01*
X149698979Y-62585153D01*
X149825924Y-62390849D01*
X149876444Y-62275674D01*
X149921400Y-62222189D01*
X149988136Y-62201499D01*
X150055464Y-62220174D01*
X150102007Y-62272284D01*
X150114000Y-62325485D01*
X150114000Y-64392000D01*
X150094315Y-64459039D01*
X150041511Y-64504794D01*
X149990000Y-64516000D01*
X78610000Y-64516000D01*
X78542961Y-64496315D01*
X78497206Y-64443511D01*
X78486000Y-64392000D01*
X78486000Y-61976006D01*
X78863700Y-61976006D01*
X78882864Y-62207297D01*
X78882866Y-62207308D01*
X78939842Y-62432300D01*
X79033075Y-62644848D01*
X79160016Y-62839147D01*
X79160019Y-62839151D01*
X79160021Y-62839153D01*
X79317216Y-63009913D01*
X79317219Y-63009915D01*
X79317222Y-63009918D01*
X79500365Y-63152464D01*
X79500371Y-63152468D01*
X79500374Y-63152470D01*
X79704497Y-63262936D01*
X79818487Y-63302068D01*
X79924015Y-63338297D01*
X79924017Y-63338297D01*
X79924019Y-63338298D01*
X80152951Y-63376500D01*
X80152952Y-63376500D01*
X80385048Y-63376500D01*
X80385049Y-63376500D01*
X80613981Y-63338298D01*
X80833503Y-63262936D01*
X81037626Y-63152470D01*
X81220784Y-63009913D01*
X81229130Y-63000846D01*
X81289010Y-62964854D01*
X81358849Y-62966949D01*
X81416468Y-63006469D01*
X81436544Y-63041491D01*
X81465203Y-63118330D01*
X81465206Y-63118335D01*
X81551452Y-63233544D01*
X81551455Y-63233547D01*
X81666664Y-63319793D01*
X81666671Y-63319797D01*
X81801517Y-63370091D01*
X81801516Y-63370091D01*
X81808444Y-63370835D01*
X81861127Y-63376500D01*
X83756872Y-63376499D01*
X83816483Y-63370091D01*
X83951331Y-63319796D01*
X84066546Y-63233546D01*
X84152796Y-63118331D01*
X84203091Y-62983483D01*
X84209500Y-62923873D01*
X84209499Y-61028128D01*
X84203091Y-60968517D01*
X84194727Y-60946093D01*
X84152797Y-60833671D01*
X84152793Y-60833664D01*
X84066547Y-60718455D01*
X84066544Y-60718452D01*
X83951335Y-60632206D01*
X83951328Y-60632202D01*
X83816482Y-60581908D01*
X83816483Y-60581908D01*
X83756883Y-60575501D01*
X83756881Y-60575500D01*
X83756873Y-60575500D01*
X83756864Y-60575500D01*
X81861129Y-60575500D01*
X81861123Y-60575501D01*
X81801516Y-60581908D01*
X81666671Y-60632202D01*
X81666664Y-60632206D01*
X81551455Y-60718452D01*
X81551452Y-60718455D01*
X81465206Y-60833664D01*
X81465203Y-60833670D01*
X81436544Y-60910508D01*
X81394672Y-60966441D01*
X81329208Y-60990858D01*
X81260935Y-60976006D01*
X81229135Y-60951158D01*
X81220784Y-60942087D01*
X81220778Y-60942082D01*
X81220777Y-60942081D01*
X81037634Y-60799535D01*
X81037628Y-60799531D01*
X80833504Y-60689064D01*
X80833495Y-60689061D01*
X80613984Y-60613702D01*
X80410002Y-60579664D01*
X80385049Y-60575500D01*
X80152951Y-60575500D01*
X80127998Y-60579664D01*
X79924015Y-60613702D01*
X79704504Y-60689061D01*
X79704495Y-60689064D01*
X79500371Y-60799531D01*
X79500365Y-60799535D01*
X79317222Y-60942081D01*
X79317219Y-60942084D01*
X79317216Y-60942086D01*
X79317216Y-60942087D01*
X79278719Y-60983906D01*
X79160016Y-61112852D01*
X79033075Y-61307151D01*
X78939842Y-61519699D01*
X78882866Y-61744691D01*
X78882864Y-61744702D01*
X78863700Y-61975993D01*
X78863700Y-61976006D01*
X78486000Y-61976006D01*
X78486000Y-58420000D01*
X79058357Y-58420000D01*
X79078884Y-58641535D01*
X79078885Y-58641537D01*
X79139769Y-58855523D01*
X79139775Y-58855538D01*
X79238938Y-59054683D01*
X79238943Y-59054691D01*
X79373020Y-59232238D01*
X79537437Y-59382123D01*
X79537439Y-59382125D01*
X79726595Y-59499245D01*
X79726596Y-59499245D01*
X79726599Y-59499247D01*
X79934060Y-59579618D01*
X80152757Y-59620500D01*
X80152759Y-59620500D01*
X80375241Y-59620500D01*
X80375243Y-59620500D01*
X80593940Y-59579618D01*
X80801401Y-59499247D01*
X80990562Y-59382124D01*
X81154981Y-59232236D01*
X81289058Y-59054689D01*
X81388229Y-58855528D01*
X81449115Y-58641536D01*
X81469643Y-58420000D01*
X81449115Y-58198464D01*
X81388229Y-57984472D01*
X81384877Y-57977740D01*
X81289061Y-57785316D01*
X81289056Y-57785308D01*
X81154979Y-57607761D01*
X80990562Y-57457876D01*
X80990560Y-57457874D01*
X80801404Y-57340754D01*
X80801398Y-57340752D01*
X80779594Y-57332305D01*
X80593940Y-57260382D01*
X80375243Y-57219500D01*
X80152757Y-57219500D01*
X79934060Y-57260382D01*
X79802864Y-57311207D01*
X79726601Y-57340752D01*
X79726595Y-57340754D01*
X79537439Y-57457874D01*
X79537437Y-57457876D01*
X79373020Y-57607761D01*
X79238943Y-57785308D01*
X79238938Y-57785316D01*
X79139775Y-57984461D01*
X79139769Y-57984476D01*
X79078885Y-58198462D01*
X79078884Y-58198464D01*
X79058357Y-58419999D01*
X79058357Y-58420000D01*
X78486000Y-58420000D01*
X78486000Y-50800000D01*
X79058357Y-50800000D01*
X79078884Y-51021535D01*
X79078885Y-51021537D01*
X79139769Y-51235523D01*
X79139775Y-51235538D01*
X79238938Y-51434683D01*
X79238943Y-51434691D01*
X79373020Y-51612238D01*
X79537437Y-51762123D01*
X79537439Y-51762125D01*
X79726595Y-51879245D01*
X79726596Y-51879245D01*
X79726599Y-51879247D01*
X79934060Y-51959618D01*
X80152757Y-52000500D01*
X80152759Y-52000500D01*
X80375241Y-52000500D01*
X80375243Y-52000500D01*
X80593940Y-51959618D01*
X80743004Y-51901870D01*
X89041823Y-51901870D01*
X89041824Y-51901876D01*
X89048231Y-51961483D01*
X89098525Y-52096328D01*
X89098529Y-52096335D01*
X89184775Y-52211544D01*
X89184778Y-52211547D01*
X89299987Y-52297793D01*
X89299994Y-52297797D01*
X89434840Y-52348091D01*
X89434839Y-52348091D01*
X89441767Y-52348835D01*
X89494450Y-52354500D01*
X90583641Y-52354499D01*
X90650680Y-52374184D01*
X90694852Y-52423652D01*
X90708070Y-52450454D01*
X90711177Y-52457956D01*
X90766353Y-52620497D01*
X90768455Y-52628340D01*
X90801943Y-52796706D01*
X90803003Y-52804754D01*
X90814367Y-52978127D01*
X90814500Y-52982184D01*
X90814500Y-60879054D01*
X90794815Y-60946093D01*
X90769165Y-60974907D01*
X90711352Y-61022352D01*
X90583203Y-61178504D01*
X90583198Y-61178511D01*
X90487978Y-61356654D01*
X90429337Y-61549968D01*
X90418594Y-61659054D01*
X90414500Y-61700620D01*
X90414500Y-62251380D01*
X90416559Y-62272284D01*
X90429337Y-62402031D01*
X90487978Y-62595345D01*
X90583198Y-62773488D01*
X90583203Y-62773495D01*
X90711352Y-62929647D01*
X90798113Y-63000849D01*
X90867506Y-63057798D01*
X90867509Y-63057799D01*
X90867511Y-63057801D01*
X91045654Y-63153021D01*
X91045656Y-63153021D01*
X91045659Y-63153023D01*
X91238967Y-63211662D01*
X91440000Y-63231462D01*
X91641033Y-63211662D01*
X91834341Y-63153023D01*
X92012494Y-63057798D01*
X92012498Y-63057794D01*
X92016546Y-63055631D01*
X92084949Y-63041389D01*
X92133454Y-63055631D01*
X92137502Y-63057794D01*
X92137506Y-63057798D01*
X92315659Y-63153023D01*
X92508967Y-63211662D01*
X92710000Y-63231462D01*
X92911033Y-63211662D01*
X93104341Y-63153023D01*
X93104344Y-63153020D01*
X93106016Y-63152514D01*
X93175883Y-63151890D01*
X93204585Y-63166097D01*
X93205128Y-63165103D01*
X93212913Y-63169354D01*
X93347620Y-63219596D01*
X93347627Y-63219598D01*
X93407155Y-63225999D01*
X93407172Y-63226000D01*
X93730000Y-63226000D01*
X93730000Y-62310270D01*
X93730299Y-62304190D01*
X93733441Y-62272284D01*
X93734629Y-62260220D01*
X93799052Y-62310363D01*
X93917424Y-62351000D01*
X94011073Y-62351000D01*
X94103446Y-62335586D01*
X94213514Y-62276019D01*
X94230000Y-62258110D01*
X94230000Y-63226000D01*
X94552828Y-63226000D01*
X94552844Y-63225999D01*
X94612372Y-63219598D01*
X94612379Y-63219596D01*
X94747086Y-63169354D01*
X94747093Y-63169350D01*
X94862187Y-63083190D01*
X94862190Y-63083187D01*
X94948350Y-62968093D01*
X94948354Y-62968086D01*
X94998596Y-62833379D01*
X94998598Y-62833372D01*
X95004999Y-62773844D01*
X95005000Y-62773827D01*
X95005000Y-62226000D01*
X94259560Y-62226000D01*
X94298278Y-62183941D01*
X94348551Y-62069330D01*
X94358886Y-61944605D01*
X94328163Y-61823281D01*
X94264606Y-61726000D01*
X95005000Y-61726000D01*
X95005000Y-61178172D01*
X95004999Y-61178155D01*
X94998598Y-61118627D01*
X94998596Y-61118620D01*
X94948354Y-60983913D01*
X94948350Y-60983906D01*
X94862190Y-60868812D01*
X94862187Y-60868809D01*
X94747093Y-60782649D01*
X94747086Y-60782645D01*
X94612379Y-60732403D01*
X94612372Y-60732401D01*
X94552844Y-60726000D01*
X94230000Y-60726000D01*
X94230000Y-61695382D01*
X94160948Y-61641637D01*
X94042576Y-61601000D01*
X93948927Y-61601000D01*
X93856554Y-61616414D01*
X93746486Y-61675981D01*
X93734369Y-61689142D01*
X93733073Y-61675981D01*
X93730299Y-61647808D01*
X93730000Y-61641728D01*
X93730000Y-60726000D01*
X93407155Y-60726000D01*
X93347627Y-60732401D01*
X93347620Y-60732403D01*
X93212913Y-60782645D01*
X93205132Y-60786895D01*
X93203940Y-60784713D01*
X93150842Y-60804510D01*
X93106018Y-60799486D01*
X93104342Y-60798977D01*
X93104341Y-60798977D01*
X93002556Y-60768101D01*
X92911031Y-60740337D01*
X92710000Y-60720538D01*
X92508968Y-60740337D01*
X92315655Y-60798978D01*
X92247952Y-60835166D01*
X92179549Y-60849407D01*
X92114306Y-60824406D01*
X92072936Y-60768101D01*
X92065500Y-60725807D01*
X92065500Y-60669354D01*
X108594199Y-60669354D01*
X108860832Y-60919082D01*
X108860832Y-60919083D01*
X109336577Y-61309517D01*
X109336576Y-61309517D01*
X109836848Y-61668006D01*
X110359484Y-61993002D01*
X110359484Y-61993001D01*
X110902258Y-62283120D01*
X111462851Y-62537121D01*
X112038856Y-62753914D01*
X112038857Y-62753914D01*
X112627792Y-62932566D01*
X113227173Y-63072322D01*
X113834399Y-63172575D01*
X113834400Y-63172575D01*
X114446874Y-63232899D01*
X115062000Y-63253036D01*
X115677126Y-63232899D01*
X116289600Y-63172575D01*
X116289601Y-63172575D01*
X116896827Y-63072322D01*
X117496208Y-62932566D01*
X118085143Y-62753914D01*
X118085144Y-62753914D01*
X118661149Y-62537121D01*
X119221742Y-62283120D01*
X119764516Y-61993001D01*
X119764516Y-61993002D01*
X120165941Y-61743380D01*
X135118500Y-61743380D01*
X135120927Y-61768019D01*
X135133337Y-61894031D01*
X135191978Y-62087345D01*
X135287198Y-62265488D01*
X135287201Y-62265492D01*
X135287202Y-62265494D01*
X135295557Y-62275675D01*
X135415352Y-62421647D01*
X135471888Y-62468044D01*
X135571506Y-62549798D01*
X135571509Y-62549799D01*
X135571511Y-62549801D01*
X135749654Y-62645021D01*
X135749656Y-62645021D01*
X135749659Y-62645023D01*
X135942967Y-62703662D01*
X136144000Y-62723462D01*
X136345033Y-62703662D01*
X136538341Y-62645023D01*
X136716494Y-62549798D01*
X136716498Y-62549794D01*
X136720546Y-62547631D01*
X136788949Y-62533389D01*
X136837454Y-62547631D01*
X136841502Y-62549794D01*
X136841506Y-62549798D01*
X137019659Y-62645023D01*
X137212967Y-62703662D01*
X137414000Y-62723462D01*
X137615033Y-62703662D01*
X137808341Y-62645023D01*
X137808344Y-62645020D01*
X137810016Y-62644514D01*
X137879883Y-62643890D01*
X137908585Y-62658097D01*
X137909128Y-62657103D01*
X137916913Y-62661354D01*
X138051620Y-62711596D01*
X138051627Y-62711598D01*
X138111155Y-62717999D01*
X138111172Y-62718000D01*
X138434000Y-62718000D01*
X138434000Y-61802270D01*
X138434299Y-61796190D01*
X138438629Y-61752220D01*
X138503052Y-61802363D01*
X138621424Y-61843000D01*
X138715073Y-61843000D01*
X138807446Y-61827586D01*
X138917514Y-61768019D01*
X138934000Y-61750110D01*
X138934000Y-62718000D01*
X139256828Y-62718000D01*
X139256844Y-62717999D01*
X139316372Y-62711598D01*
X139316379Y-62711596D01*
X139451086Y-62661354D01*
X139451093Y-62661350D01*
X139566187Y-62575190D01*
X139566190Y-62575187D01*
X139652350Y-62460093D01*
X139652354Y-62460086D01*
X139702596Y-62325379D01*
X139702598Y-62325372D01*
X139708999Y-62265844D01*
X139709000Y-62265827D01*
X139709000Y-61718000D01*
X138963560Y-61718000D01*
X139002278Y-61675941D01*
X139052551Y-61561330D01*
X139062886Y-61436605D01*
X139032163Y-61315281D01*
X138968606Y-61218000D01*
X139709000Y-61218000D01*
X139709000Y-60670172D01*
X139708999Y-60670155D01*
X139702598Y-60610627D01*
X139702596Y-60610620D01*
X139652354Y-60475913D01*
X139652350Y-60475906D01*
X139566190Y-60360812D01*
X139566187Y-60360809D01*
X139451093Y-60274649D01*
X139451086Y-60274645D01*
X139316379Y-60224403D01*
X139316372Y-60224401D01*
X139256844Y-60218000D01*
X138934000Y-60218000D01*
X138934000Y-61187382D01*
X138864948Y-61133637D01*
X138746576Y-61093000D01*
X138652927Y-61093000D01*
X138560554Y-61108414D01*
X138450486Y-61167981D01*
X138438369Y-61181142D01*
X138434299Y-61139808D01*
X138434000Y-61133728D01*
X138434000Y-60218000D01*
X138163500Y-60218000D01*
X138096461Y-60198315D01*
X138050706Y-60145511D01*
X138039500Y-60094000D01*
X138039500Y-58562372D01*
X138039501Y-58562368D01*
X138039500Y-58488455D01*
X138039633Y-58484400D01*
X138050991Y-58311068D01*
X138052048Y-58303028D01*
X138079303Y-58166000D01*
X147384357Y-58166000D01*
X147404884Y-58387535D01*
X147404885Y-58387537D01*
X147465769Y-58601523D01*
X147465775Y-58601538D01*
X147564938Y-58800683D01*
X147564943Y-58800691D01*
X147699020Y-58978238D01*
X147863437Y-59128123D01*
X147863439Y-59128125D01*
X148052595Y-59245245D01*
X148052596Y-59245245D01*
X148052599Y-59245247D01*
X148260060Y-59325618D01*
X148478757Y-59366500D01*
X148478759Y-59366500D01*
X148701241Y-59366500D01*
X148701243Y-59366500D01*
X148919940Y-59325618D01*
X149127401Y-59245247D01*
X149316562Y-59128124D01*
X149480981Y-58978236D01*
X149615058Y-58800689D01*
X149714229Y-58601528D01*
X149775115Y-58387536D01*
X149795643Y-58166000D01*
X149780978Y-58007742D01*
X149775115Y-57944464D01*
X149775114Y-57944462D01*
X149733361Y-57797716D01*
X149714229Y-57730472D01*
X149714224Y-57730461D01*
X149615061Y-57531316D01*
X149615056Y-57531308D01*
X149480979Y-57353761D01*
X149316562Y-57203876D01*
X149316560Y-57203874D01*
X149127404Y-57086754D01*
X149127398Y-57086752D01*
X148919940Y-57006382D01*
X148701243Y-56965500D01*
X148478757Y-56965500D01*
X148260060Y-57006382D01*
X148128864Y-57057207D01*
X148052601Y-57086752D01*
X148052595Y-57086754D01*
X147863439Y-57203874D01*
X147863437Y-57203876D01*
X147699020Y-57353761D01*
X147564943Y-57531308D01*
X147564938Y-57531316D01*
X147465775Y-57730461D01*
X147465769Y-57730476D01*
X147404885Y-57944462D01*
X147404884Y-57944464D01*
X147384357Y-58165999D01*
X147384357Y-58166000D01*
X138079303Y-58166000D01*
X138085540Y-58134645D01*
X138087636Y-58126821D01*
X138142814Y-57964267D01*
X138145921Y-57956768D01*
X138156208Y-57935907D01*
X138221848Y-57802798D01*
X138225901Y-57795780D01*
X138232898Y-57785308D01*
X138321275Y-57653039D01*
X138326199Y-57646621D01*
X138440570Y-57516203D01*
X138443312Y-57513276D01*
X144958106Y-50998482D01*
X145019427Y-50964999D01*
X145068570Y-50964276D01*
X145176757Y-50984500D01*
X145176759Y-50984500D01*
X145399241Y-50984500D01*
X145399243Y-50984500D01*
X145617940Y-50943618D01*
X145825401Y-50863247D01*
X146014562Y-50746124D01*
X146178981Y-50596236D01*
X146216917Y-50546000D01*
X147384357Y-50546000D01*
X147404884Y-50767535D01*
X147404885Y-50767537D01*
X147465769Y-50981523D01*
X147465775Y-50981538D01*
X147564938Y-51180683D01*
X147564943Y-51180691D01*
X147699020Y-51358238D01*
X147851088Y-51496866D01*
X147855070Y-51500496D01*
X147863437Y-51508123D01*
X147863439Y-51508125D01*
X148052595Y-51625245D01*
X148052596Y-51625245D01*
X148052599Y-51625247D01*
X148260060Y-51705618D01*
X148478757Y-51746500D01*
X148478759Y-51746500D01*
X148701241Y-51746500D01*
X148701243Y-51746500D01*
X148919940Y-51705618D01*
X149127401Y-51625247D01*
X149316562Y-51508124D01*
X149480981Y-51358236D01*
X149615058Y-51180689D01*
X149714229Y-50981528D01*
X149775115Y-50767536D01*
X149795643Y-50546000D01*
X149775115Y-50324464D01*
X149714229Y-50110472D01*
X149714224Y-50110461D01*
X149615061Y-49911316D01*
X149615056Y-49911308D01*
X149480979Y-49733761D01*
X149316562Y-49583876D01*
X149316560Y-49583874D01*
X149127404Y-49466754D01*
X149127398Y-49466752D01*
X148919940Y-49386382D01*
X148701243Y-49345500D01*
X148478757Y-49345500D01*
X148260060Y-49386382D01*
X148128864Y-49437207D01*
X148052601Y-49466752D01*
X148052595Y-49466754D01*
X147863439Y-49583874D01*
X147863437Y-49583876D01*
X147699020Y-49733761D01*
X147564943Y-49911308D01*
X147564938Y-49911316D01*
X147465775Y-50110461D01*
X147465769Y-50110476D01*
X147404885Y-50324462D01*
X147404884Y-50324464D01*
X147384357Y-50545999D01*
X147384357Y-50546000D01*
X146216917Y-50546000D01*
X146313058Y-50418689D01*
X146412229Y-50219528D01*
X146473115Y-50005536D01*
X146493643Y-49784000D01*
X146490356Y-49748532D01*
X146473115Y-49562464D01*
X146473114Y-49562462D01*
X146445882Y-49466752D01*
X146412229Y-49348472D01*
X146412224Y-49348461D01*
X146313061Y-49149316D01*
X146313056Y-49149308D01*
X146178979Y-48971761D01*
X146014562Y-48821876D01*
X146014560Y-48821874D01*
X145825404Y-48704754D01*
X145825398Y-48704752D01*
X145617940Y-48624382D01*
X145399243Y-48583500D01*
X145176757Y-48583500D01*
X144958060Y-48624382D01*
X144826864Y-48675207D01*
X144750601Y-48704752D01*
X144750595Y-48704754D01*
X144561439Y-48821874D01*
X144561437Y-48821876D01*
X144397020Y-48971761D01*
X144262943Y-49149308D01*
X144262938Y-49149316D01*
X144163775Y-49348461D01*
X144163769Y-49348476D01*
X144102885Y-49562462D01*
X144102884Y-49562464D01*
X144082357Y-49783999D01*
X144082357Y-49784000D01*
X144102885Y-50005536D01*
X144103315Y-50007837D01*
X144103201Y-50008955D01*
X144103414Y-50011245D01*
X144102966Y-50011286D01*
X144096283Y-50077352D01*
X144069107Y-50118301D01*
X137593819Y-56593589D01*
X137593759Y-56593621D01*
X137453214Y-56734169D01*
X137269358Y-56964722D01*
X137269352Y-56964731D01*
X137112467Y-57214417D01*
X137112466Y-57214418D01*
X136984520Y-57480110D01*
X136984519Y-57480112D01*
X136887130Y-57758447D01*
X136887125Y-57758462D01*
X136821514Y-58045935D01*
X136821510Y-58045962D01*
X136788498Y-58338982D01*
X136788498Y-58338987D01*
X136788500Y-58466317D01*
X136788500Y-60217807D01*
X136768815Y-60284846D01*
X136716011Y-60330601D01*
X136646853Y-60340545D01*
X136606048Y-60327166D01*
X136538344Y-60290978D01*
X136345031Y-60232337D01*
X136144000Y-60212538D01*
X135942968Y-60232337D01*
X135749654Y-60290978D01*
X135571511Y-60386198D01*
X135571504Y-60386203D01*
X135415352Y-60514352D01*
X135287203Y-60670504D01*
X135287198Y-60670511D01*
X135191978Y-60848654D01*
X135133337Y-61041968D01*
X135122162Y-61155433D01*
X135118500Y-61192620D01*
X135118500Y-61743380D01*
X120165941Y-61743380D01*
X120287152Y-61668006D01*
X120787424Y-61309517D01*
X120787423Y-61309517D01*
X121263175Y-60919076D01*
X121263176Y-60919076D01*
X121529800Y-60669354D01*
X115062000Y-54201553D01*
X108594199Y-60669354D01*
X92065500Y-60669354D01*
X92065500Y-56445870D01*
X99211500Y-56445870D01*
X99211501Y-56445876D01*
X99217908Y-56505483D01*
X99268202Y-56640328D01*
X99268206Y-56640335D01*
X99354452Y-56755544D01*
X99354455Y-56755547D01*
X99469664Y-56841793D01*
X99469671Y-56841797D01*
X99604517Y-56892091D01*
X99604516Y-56892091D01*
X99611444Y-56892835D01*
X99664127Y-56898500D01*
X101512500Y-56898499D01*
X101579539Y-56918184D01*
X101625294Y-56970987D01*
X101636500Y-57022499D01*
X101636500Y-57332305D01*
X101616815Y-57399344D01*
X101585385Y-57432623D01*
X101502129Y-57493111D01*
X101375466Y-57633785D01*
X101280821Y-57797715D01*
X101280818Y-57797722D01*
X101227956Y-57960416D01*
X101222326Y-57977744D01*
X101202540Y-58166000D01*
X101222326Y-58354256D01*
X101222327Y-58354259D01*
X101280818Y-58534277D01*
X101280821Y-58534284D01*
X101375467Y-58698216D01*
X101467736Y-58800691D01*
X101502129Y-58838888D01*
X101655265Y-58950148D01*
X101655270Y-58950151D01*
X101828192Y-59027142D01*
X101828197Y-59027144D01*
X102013354Y-59066500D01*
X102013355Y-59066500D01*
X102202644Y-59066500D01*
X102202646Y-59066500D01*
X102387803Y-59027144D01*
X102560730Y-58950151D01*
X102713871Y-58838888D01*
X102840533Y-58698216D01*
X102935179Y-58534284D01*
X102993674Y-58354256D01*
X103013460Y-58166000D01*
X102993674Y-57977744D01*
X102935179Y-57797716D01*
X102928017Y-57785311D01*
X102904113Y-57743907D01*
X102887500Y-57681907D01*
X102887500Y-57022499D01*
X102907185Y-56955460D01*
X102959989Y-56909705D01*
X103011500Y-56898499D01*
X104859871Y-56898499D01*
X104859872Y-56898499D01*
X104919483Y-56892091D01*
X105054331Y-56841796D01*
X105169546Y-56755546D01*
X105255796Y-56640331D01*
X105306091Y-56505483D01*
X105312500Y-56445873D01*
X105312499Y-53848000D01*
X105656964Y-53848000D01*
X105677101Y-54463126D01*
X105737425Y-55075600D01*
X105737425Y-55075601D01*
X105837678Y-55682827D01*
X105977434Y-56282208D01*
X106156086Y-56871143D01*
X106156086Y-56871144D01*
X106372879Y-57447149D01*
X106626880Y-58007742D01*
X106916999Y-58550516D01*
X106916998Y-58550516D01*
X107241994Y-59073152D01*
X107600483Y-59573424D01*
X107600483Y-59573423D01*
X107990917Y-60049168D01*
X107990918Y-60049168D01*
X108240644Y-60315799D01*
X108240645Y-60315800D01*
X114708446Y-53848000D01*
X115415553Y-53848000D01*
X121883354Y-60315800D01*
X122133076Y-60049176D01*
X122133076Y-60049175D01*
X122523517Y-59573423D01*
X122523517Y-59573424D01*
X122882006Y-59073152D01*
X123207002Y-58550516D01*
X123207001Y-58550516D01*
X123497120Y-58007742D01*
X123751121Y-57447149D01*
X123967914Y-56871144D01*
X123967914Y-56871143D01*
X124096920Y-56445870D01*
X124811500Y-56445870D01*
X124811501Y-56445876D01*
X124817908Y-56505483D01*
X124868202Y-56640328D01*
X124868206Y-56640335D01*
X124954452Y-56755544D01*
X124954455Y-56755547D01*
X125069664Y-56841793D01*
X125069671Y-56841797D01*
X125204517Y-56892091D01*
X125204516Y-56892091D01*
X125211444Y-56892835D01*
X125264127Y-56898500D01*
X127112500Y-56898499D01*
X127179539Y-56918184D01*
X127225294Y-56970987D01*
X127236500Y-57022499D01*
X127236500Y-57935907D01*
X127219887Y-57997907D01*
X127188821Y-58051714D01*
X127141140Y-58198462D01*
X127130326Y-58231744D01*
X127110540Y-58420000D01*
X127130326Y-58608256D01*
X127130327Y-58608259D01*
X127188818Y-58788277D01*
X127188821Y-58788284D01*
X127283467Y-58952216D01*
X127375736Y-59054691D01*
X127410129Y-59092888D01*
X127563265Y-59204148D01*
X127563270Y-59204151D01*
X127736192Y-59281142D01*
X127736197Y-59281144D01*
X127921354Y-59320500D01*
X127921355Y-59320500D01*
X128110644Y-59320500D01*
X128110646Y-59320500D01*
X128295803Y-59281144D01*
X128468730Y-59204151D01*
X128621871Y-59092888D01*
X128748533Y-58952216D01*
X128843179Y-58788284D01*
X128901674Y-58608256D01*
X128921460Y-58420000D01*
X128901674Y-58231744D01*
X128843179Y-58051716D01*
X128748533Y-57887784D01*
X128621871Y-57747112D01*
X128598973Y-57730476D01*
X128538615Y-57686623D01*
X128495949Y-57631293D01*
X128487500Y-57586305D01*
X128487500Y-57022499D01*
X128507185Y-56955460D01*
X128559989Y-56909705D01*
X128611500Y-56898499D01*
X130459871Y-56898499D01*
X130459872Y-56898499D01*
X130519483Y-56892091D01*
X130654331Y-56841796D01*
X130769546Y-56755546D01*
X130855796Y-56640331D01*
X130906091Y-56505483D01*
X130912500Y-56445873D01*
X130912499Y-51901870D01*
X133573500Y-51901870D01*
X133573501Y-51901876D01*
X133579908Y-51961483D01*
X133630202Y-52096328D01*
X133630206Y-52096335D01*
X133716452Y-52211544D01*
X133716455Y-52211547D01*
X133831664Y-52297793D01*
X133831671Y-52297797D01*
X133966517Y-52348091D01*
X133966516Y-52348091D01*
X133973444Y-52348835D01*
X134026127Y-52354500D01*
X135721872Y-52354499D01*
X135781483Y-52348091D01*
X135916331Y-52297796D01*
X136031546Y-52211546D01*
X136117796Y-52096331D01*
X136168091Y-51961483D01*
X136168092Y-51961472D01*
X136169365Y-51956088D01*
X136203933Y-51895369D01*
X136265841Y-51862978D01*
X136335433Y-51869199D01*
X136377725Y-51896912D01*
X136534858Y-52054045D01*
X136534861Y-52054047D01*
X136721266Y-52184568D01*
X136927504Y-52280739D01*
X137147308Y-52339635D01*
X137309230Y-52353801D01*
X137373998Y-52359468D01*
X137374000Y-52359468D01*
X137374002Y-52359468D01*
X137430807Y-52354498D01*
X137600692Y-52339635D01*
X137820496Y-52280739D01*
X138026734Y-52184568D01*
X138213139Y-52054047D01*
X138374047Y-51893139D01*
X138504568Y-51706734D01*
X138600739Y-51500496D01*
X138659635Y-51280692D01*
X138679322Y-51055669D01*
X138679468Y-51054001D01*
X138679468Y-51053998D01*
X138673128Y-50981538D01*
X138659635Y-50827308D01*
X138600739Y-50607504D01*
X138504568Y-50401266D01*
X138374047Y-50214861D01*
X138374045Y-50214858D01*
X138213141Y-50053954D01*
X138026734Y-49923432D01*
X138026732Y-49923431D01*
X137820497Y-49827261D01*
X137820488Y-49827258D01*
X137600697Y-49768366D01*
X137600693Y-49768365D01*
X137600692Y-49768365D01*
X137600691Y-49768364D01*
X137600686Y-49768364D01*
X137374002Y-49748532D01*
X137373998Y-49748532D01*
X137147313Y-49768364D01*
X137147302Y-49768366D01*
X136927511Y-49827258D01*
X136927502Y-49827261D01*
X136721267Y-49923431D01*
X136721265Y-49923432D01*
X136534862Y-50053951D01*
X136377726Y-50211087D01*
X136316403Y-50244571D01*
X136246711Y-50239587D01*
X136190778Y-50197715D01*
X136169369Y-50151923D01*
X136168091Y-50146518D01*
X136154648Y-50110476D01*
X136117796Y-50011669D01*
X136117795Y-50011668D01*
X136117793Y-50011664D01*
X136031547Y-49896455D01*
X136031544Y-49896452D01*
X135916335Y-49810206D01*
X135916328Y-49810202D01*
X135781482Y-49759908D01*
X135781483Y-49759908D01*
X135721883Y-49753501D01*
X135721881Y-49753500D01*
X135721873Y-49753500D01*
X135721864Y-49753500D01*
X134026129Y-49753500D01*
X134026123Y-49753501D01*
X133966516Y-49759908D01*
X133831671Y-49810202D01*
X133831664Y-49810206D01*
X133716455Y-49896452D01*
X133716452Y-49896455D01*
X133630206Y-50011664D01*
X133630202Y-50011671D01*
X133579908Y-50146517D01*
X133573501Y-50206116D01*
X133573500Y-50206135D01*
X133573500Y-51901870D01*
X130912499Y-51901870D01*
X130912499Y-51250128D01*
X130906091Y-51190517D01*
X130902426Y-51180691D01*
X130855797Y-51055671D01*
X130855793Y-51055664D01*
X130769547Y-50940455D01*
X130769544Y-50940452D01*
X130654335Y-50854206D01*
X130654328Y-50854202D01*
X130519482Y-50803908D01*
X130519483Y-50803908D01*
X130459883Y-50797501D01*
X130459881Y-50797500D01*
X130459873Y-50797500D01*
X130459864Y-50797500D01*
X125264129Y-50797500D01*
X125264123Y-50797501D01*
X125204516Y-50803908D01*
X125069671Y-50854202D01*
X125069664Y-50854206D01*
X124954455Y-50940452D01*
X124954452Y-50940455D01*
X124868206Y-51055664D01*
X124868202Y-51055671D01*
X124817908Y-51190517D01*
X124811501Y-51250116D01*
X124811501Y-51250123D01*
X124811500Y-51250135D01*
X124811500Y-56445870D01*
X124096920Y-56445870D01*
X124146566Y-56282208D01*
X124286322Y-55682827D01*
X124386575Y-55075601D01*
X124386575Y-55075600D01*
X124446899Y-54463126D01*
X124467036Y-53848000D01*
X124446899Y-53232874D01*
X124386575Y-52620400D01*
X124386575Y-52620399D01*
X124286322Y-52013173D01*
X124146566Y-51413792D01*
X123967914Y-50824857D01*
X123967914Y-50824856D01*
X123751121Y-50248851D01*
X123497120Y-49688258D01*
X123207001Y-49145484D01*
X123207002Y-49145484D01*
X122882006Y-48622848D01*
X122523517Y-48122576D01*
X122523517Y-48122577D01*
X122133083Y-47646832D01*
X122133082Y-47646832D01*
X121883354Y-47380199D01*
X115415553Y-53848000D01*
X114708446Y-53848000D01*
X108240645Y-47380199D01*
X107990918Y-47646832D01*
X107990917Y-47646832D01*
X107600483Y-48122577D01*
X107600483Y-48122576D01*
X107241994Y-48622848D01*
X106916998Y-49145484D01*
X106916999Y-49145484D01*
X106626880Y-49688258D01*
X106372879Y-50248851D01*
X106156086Y-50824856D01*
X106156086Y-50824857D01*
X105977434Y-51413792D01*
X105837678Y-52013173D01*
X105737425Y-52620399D01*
X105737425Y-52620400D01*
X105677101Y-53232874D01*
X105656964Y-53848000D01*
X105312499Y-53848000D01*
X105312499Y-51250128D01*
X105306091Y-51190517D01*
X105302426Y-51180691D01*
X105255797Y-51055671D01*
X105255793Y-51055664D01*
X105169547Y-50940455D01*
X105169544Y-50940452D01*
X105054335Y-50854206D01*
X105054328Y-50854202D01*
X104919482Y-50803908D01*
X104919483Y-50803908D01*
X104859883Y-50797501D01*
X104859881Y-50797500D01*
X104859873Y-50797500D01*
X104859864Y-50797500D01*
X99664129Y-50797500D01*
X99664123Y-50797501D01*
X99604516Y-50803908D01*
X99469671Y-50854202D01*
X99469664Y-50854206D01*
X99354455Y-50940452D01*
X99354452Y-50940455D01*
X99268206Y-51055664D01*
X99268202Y-51055671D01*
X99217908Y-51190517D01*
X99211501Y-51250116D01*
X99211501Y-51250123D01*
X99211500Y-51250135D01*
X99211500Y-56445870D01*
X92065500Y-56445870D01*
X92065500Y-52938842D01*
X92065497Y-52938745D01*
X92065497Y-52832657D01*
X92065496Y-52832653D01*
X92061895Y-52800695D01*
X92056324Y-52751246D01*
X92032482Y-52539629D01*
X92032481Y-52539628D01*
X92032481Y-52539625D01*
X91977756Y-52299857D01*
X91982029Y-52230119D01*
X92023328Y-52173761D01*
X92088540Y-52148678D01*
X92156961Y-52162832D01*
X92169754Y-52170680D01*
X92189589Y-52184568D01*
X92395827Y-52280739D01*
X92615631Y-52339635D01*
X92777553Y-52353801D01*
X92842321Y-52359468D01*
X92842323Y-52359468D01*
X92842325Y-52359468D01*
X92899130Y-52354498D01*
X93069015Y-52339635D01*
X93288819Y-52280739D01*
X93495057Y-52184568D01*
X93681462Y-52054047D01*
X93842370Y-51893139D01*
X93972891Y-51706734D01*
X94069062Y-51500496D01*
X94127958Y-51280692D01*
X94147645Y-51055669D01*
X94147791Y-51054001D01*
X94147791Y-51053998D01*
X94141451Y-50981538D01*
X94127958Y-50827308D01*
X94069062Y-50607504D01*
X93972891Y-50401266D01*
X93842370Y-50214861D01*
X93842368Y-50214858D01*
X93681464Y-50053954D01*
X93495057Y-49923432D01*
X93495055Y-49923431D01*
X93288820Y-49827261D01*
X93288811Y-49827258D01*
X93069020Y-49768366D01*
X93069016Y-49768365D01*
X93069015Y-49768365D01*
X93069014Y-49768364D01*
X93069009Y-49768364D01*
X92842325Y-49748532D01*
X92842321Y-49748532D01*
X92615636Y-49768364D01*
X92615625Y-49768366D01*
X92395834Y-49827258D01*
X92395825Y-49827261D01*
X92189590Y-49923431D01*
X92189588Y-49923432D01*
X92003185Y-50053951D01*
X91846049Y-50211087D01*
X91784726Y-50244571D01*
X91715034Y-50239587D01*
X91659101Y-50197715D01*
X91637692Y-50151923D01*
X91636414Y-50146518D01*
X91622971Y-50110476D01*
X91586119Y-50011669D01*
X91586118Y-50011668D01*
X91586116Y-50011664D01*
X91499870Y-49896455D01*
X91499867Y-49896452D01*
X91384658Y-49810206D01*
X91384651Y-49810202D01*
X91249805Y-49759908D01*
X91249806Y-49759908D01*
X91190206Y-49753501D01*
X91190204Y-49753500D01*
X91190196Y-49753500D01*
X91190187Y-49753500D01*
X89494452Y-49753500D01*
X89494446Y-49753501D01*
X89434839Y-49759908D01*
X89299994Y-49810202D01*
X89299987Y-49810206D01*
X89184778Y-49896452D01*
X89184775Y-49896455D01*
X89098529Y-50011664D01*
X89098525Y-50011671D01*
X89048231Y-50146517D01*
X89041824Y-50206116D01*
X89041823Y-50206135D01*
X89041823Y-51901870D01*
X80743004Y-51901870D01*
X80801401Y-51879247D01*
X80990562Y-51762124D01*
X81154981Y-51612236D01*
X81289058Y-51434689D01*
X81388229Y-51235528D01*
X81449115Y-51021536D01*
X81469643Y-50800000D01*
X81469411Y-50797501D01*
X81449115Y-50578464D01*
X81449114Y-50578462D01*
X81440757Y-50549091D01*
X81439878Y-50546000D01*
X82360357Y-50546000D01*
X82380884Y-50767535D01*
X82380885Y-50767537D01*
X82441769Y-50981523D01*
X82441775Y-50981538D01*
X82540938Y-51180683D01*
X82540943Y-51180691D01*
X82675020Y-51358238D01*
X82827088Y-51496866D01*
X82831070Y-51500496D01*
X82839437Y-51508123D01*
X82839439Y-51508125D01*
X83028595Y-51625245D01*
X83028596Y-51625245D01*
X83028599Y-51625247D01*
X83236060Y-51705618D01*
X83454757Y-51746500D01*
X83454759Y-51746500D01*
X83677241Y-51746500D01*
X83677243Y-51746500D01*
X83895940Y-51705618D01*
X84103401Y-51625247D01*
X84292562Y-51508124D01*
X84456981Y-51358236D01*
X84591058Y-51180689D01*
X84690229Y-50981528D01*
X84751115Y-50767536D01*
X84771643Y-50546000D01*
X84751115Y-50324464D01*
X84690229Y-50110472D01*
X84690224Y-50110461D01*
X84591061Y-49911316D01*
X84591056Y-49911308D01*
X84456979Y-49733761D01*
X84292562Y-49583876D01*
X84292560Y-49583874D01*
X84103404Y-49466754D01*
X84103398Y-49466752D01*
X83895940Y-49386382D01*
X83677243Y-49345500D01*
X83454757Y-49345500D01*
X83236060Y-49386382D01*
X83104864Y-49437207D01*
X83028601Y-49466752D01*
X83028595Y-49466754D01*
X82839439Y-49583874D01*
X82839437Y-49583876D01*
X82675020Y-49733761D01*
X82540943Y-49911308D01*
X82540938Y-49911316D01*
X82441775Y-50110461D01*
X82441769Y-50110476D01*
X82380885Y-50324462D01*
X82380884Y-50324464D01*
X82360357Y-50545999D01*
X82360357Y-50546000D01*
X81439878Y-50546000D01*
X81388229Y-50364472D01*
X81388224Y-50364461D01*
X81289061Y-50165316D01*
X81289056Y-50165308D01*
X81154979Y-49987761D01*
X80990562Y-49837876D01*
X80990560Y-49837874D01*
X80801404Y-49720754D01*
X80801398Y-49720752D01*
X80593940Y-49640382D01*
X80375243Y-49599500D01*
X80152757Y-49599500D01*
X79934060Y-49640382D01*
X79810478Y-49688258D01*
X79726601Y-49720752D01*
X79726595Y-49720754D01*
X79537439Y-49837874D01*
X79537437Y-49837876D01*
X79373020Y-49987761D01*
X79238943Y-50165308D01*
X79238938Y-50165316D01*
X79139775Y-50364461D01*
X79139769Y-50364476D01*
X79078885Y-50578462D01*
X79078884Y-50578464D01*
X79058357Y-50799999D01*
X79058357Y-50800000D01*
X78486000Y-50800000D01*
X78486000Y-47026645D01*
X108594199Y-47026645D01*
X115061999Y-53494445D01*
X121529800Y-47026645D01*
X121529799Y-47026644D01*
X121263168Y-46776918D01*
X121263168Y-46776917D01*
X120787423Y-46386483D01*
X120787424Y-46386483D01*
X120287152Y-46027994D01*
X119764516Y-45702998D01*
X119764516Y-45702999D01*
X119221742Y-45412880D01*
X118661149Y-45158879D01*
X118085144Y-44942086D01*
X118085143Y-44942086D01*
X117496208Y-44763434D01*
X116896827Y-44623678D01*
X116289601Y-44523425D01*
X116289600Y-44523425D01*
X115677126Y-44463101D01*
X115062000Y-44442964D01*
X114446874Y-44463101D01*
X113834400Y-44523425D01*
X113834399Y-44523425D01*
X113227173Y-44623678D01*
X112627792Y-44763434D01*
X112038857Y-44942086D01*
X112038856Y-44942086D01*
X111462851Y-45158879D01*
X110902258Y-45412880D01*
X110359484Y-45702999D01*
X110359484Y-45702998D01*
X109836848Y-46027994D01*
X109336576Y-46386483D01*
X109336577Y-46386483D01*
X108860832Y-46776917D01*
X108860832Y-46776918D01*
X108594199Y-47026645D01*
X78486000Y-47026645D01*
X78486000Y-42926000D01*
X82360357Y-42926000D01*
X82380884Y-43147535D01*
X82380885Y-43147537D01*
X82441769Y-43361523D01*
X82441775Y-43361538D01*
X82540938Y-43560683D01*
X82540943Y-43560691D01*
X82675020Y-43738238D01*
X82839437Y-43888123D01*
X82839439Y-43888125D01*
X83028595Y-44005245D01*
X83028596Y-44005245D01*
X83028599Y-44005247D01*
X83236060Y-44085618D01*
X83454757Y-44126500D01*
X83454759Y-44126500D01*
X83677241Y-44126500D01*
X83677243Y-44126500D01*
X83895940Y-44085618D01*
X84103401Y-44005247D01*
X84292562Y-43888124D01*
X84456981Y-43738236D01*
X84591058Y-43560689D01*
X84690229Y-43361528D01*
X84751115Y-43147536D01*
X84771643Y-42926000D01*
X84751115Y-42704464D01*
X84690229Y-42490472D01*
X84690224Y-42490461D01*
X84591061Y-42291316D01*
X84591056Y-42291308D01*
X84494918Y-42164000D01*
X144082357Y-42164000D01*
X144102884Y-42385535D01*
X144102885Y-42385537D01*
X144163769Y-42599523D01*
X144163775Y-42599538D01*
X144262938Y-42798683D01*
X144262943Y-42798691D01*
X144397020Y-42976238D01*
X144561437Y-43126123D01*
X144561439Y-43126125D01*
X144750595Y-43243245D01*
X144750596Y-43243245D01*
X144750599Y-43243247D01*
X144958060Y-43323618D01*
X145176757Y-43364500D01*
X145176759Y-43364500D01*
X145399241Y-43364500D01*
X145399243Y-43364500D01*
X145617940Y-43323618D01*
X145825401Y-43243247D01*
X146014562Y-43126124D01*
X146178981Y-42976236D01*
X146313058Y-42798689D01*
X146412229Y-42599528D01*
X146473115Y-42385536D01*
X146493643Y-42164000D01*
X146473115Y-41942464D01*
X146412229Y-41728472D01*
X146412224Y-41728461D01*
X146313061Y-41529316D01*
X146313056Y-41529308D01*
X146178979Y-41351761D01*
X146014562Y-41201876D01*
X146014560Y-41201874D01*
X145927550Y-41148000D01*
X147384357Y-41148000D01*
X147404884Y-41369535D01*
X147404885Y-41369537D01*
X147465769Y-41583523D01*
X147465775Y-41583538D01*
X147564938Y-41782683D01*
X147564943Y-41782691D01*
X147699020Y-41960238D01*
X147863437Y-42110123D01*
X147863439Y-42110125D01*
X148052595Y-42227245D01*
X148052596Y-42227245D01*
X148052599Y-42227247D01*
X148260060Y-42307618D01*
X148478757Y-42348500D01*
X148478759Y-42348500D01*
X148701241Y-42348500D01*
X148701243Y-42348500D01*
X148919940Y-42307618D01*
X149127401Y-42227247D01*
X149316562Y-42110124D01*
X149480981Y-41960236D01*
X149615058Y-41782689D01*
X149714229Y-41583528D01*
X149775115Y-41369536D01*
X149795643Y-41148000D01*
X149789782Y-41084754D01*
X149775115Y-40926464D01*
X149775114Y-40926462D01*
X149714230Y-40712476D01*
X149714229Y-40712472D01*
X149714224Y-40712461D01*
X149615061Y-40513316D01*
X149615056Y-40513308D01*
X149480979Y-40335761D01*
X149316562Y-40185876D01*
X149316560Y-40185874D01*
X149127404Y-40068754D01*
X149127398Y-40068752D01*
X148919940Y-39988382D01*
X148701243Y-39947500D01*
X148478757Y-39947500D01*
X148260060Y-39988382D01*
X148128864Y-40039207D01*
X148052601Y-40068752D01*
X148052595Y-40068754D01*
X147863439Y-40185874D01*
X147863437Y-40185876D01*
X147699020Y-40335761D01*
X147564943Y-40513308D01*
X147564938Y-40513316D01*
X147465775Y-40712461D01*
X147465769Y-40712476D01*
X147404885Y-40926462D01*
X147404884Y-40926464D01*
X147384357Y-41147999D01*
X147384357Y-41148000D01*
X145927550Y-41148000D01*
X145825404Y-41084754D01*
X145825398Y-41084752D01*
X145617940Y-41004382D01*
X145399243Y-40963500D01*
X145176757Y-40963500D01*
X144958060Y-41004382D01*
X144826864Y-41055207D01*
X144750601Y-41084752D01*
X144750595Y-41084754D01*
X144561439Y-41201874D01*
X144561437Y-41201876D01*
X144397020Y-41351761D01*
X144262943Y-41529308D01*
X144262938Y-41529316D01*
X144163775Y-41728461D01*
X144163769Y-41728476D01*
X144102885Y-41942462D01*
X144102884Y-41942464D01*
X144082357Y-42163999D01*
X144082357Y-42164000D01*
X84494918Y-42164000D01*
X84456979Y-42113761D01*
X84292562Y-41963876D01*
X84292560Y-41963874D01*
X84103404Y-41846754D01*
X84103398Y-41846752D01*
X84079614Y-41837538D01*
X83895940Y-41766382D01*
X83677243Y-41725500D01*
X83454757Y-41725500D01*
X83236060Y-41766382D01*
X83193962Y-41782691D01*
X83028601Y-41846752D01*
X83028595Y-41846754D01*
X82839439Y-41963874D01*
X82839437Y-41963876D01*
X82675020Y-42113761D01*
X82540943Y-42291308D01*
X82540938Y-42291316D01*
X82441775Y-42490461D01*
X82441769Y-42490476D01*
X82380885Y-42704462D01*
X82380884Y-42704464D01*
X82360357Y-42925999D01*
X82360357Y-42926000D01*
X78486000Y-42926000D01*
X78486000Y-41402000D01*
X79058357Y-41402000D01*
X79078884Y-41623535D01*
X79078885Y-41623537D01*
X79139769Y-41837523D01*
X79139775Y-41837538D01*
X79238938Y-42036683D01*
X79238943Y-42036691D01*
X79373020Y-42214238D01*
X79537437Y-42364123D01*
X79537439Y-42364125D01*
X79726595Y-42481245D01*
X79726596Y-42481245D01*
X79726599Y-42481247D01*
X79934060Y-42561618D01*
X80152757Y-42602500D01*
X80152759Y-42602500D01*
X80375241Y-42602500D01*
X80375243Y-42602500D01*
X80593940Y-42561618D01*
X80801401Y-42481247D01*
X80990562Y-42364124D01*
X81154981Y-42214236D01*
X81289058Y-42036689D01*
X81388229Y-41837528D01*
X81449115Y-41623536D01*
X81469643Y-41402000D01*
X81449115Y-41180464D01*
X81388229Y-40966472D01*
X81388224Y-40966461D01*
X81289061Y-40767316D01*
X81289056Y-40767308D01*
X81154979Y-40589761D01*
X80990562Y-40439876D01*
X80990560Y-40439874D01*
X80801404Y-40322754D01*
X80801398Y-40322752D01*
X80593940Y-40242382D01*
X80375243Y-40201500D01*
X80152757Y-40201500D01*
X79934060Y-40242382D01*
X79802864Y-40293207D01*
X79726601Y-40322752D01*
X79726595Y-40322754D01*
X79537439Y-40439874D01*
X79537437Y-40439876D01*
X79373020Y-40589761D01*
X79238943Y-40767308D01*
X79238938Y-40767316D01*
X79139775Y-40966461D01*
X79139769Y-40966476D01*
X79078885Y-41180462D01*
X79078884Y-41180464D01*
X79058357Y-41401999D01*
X79058357Y-41402000D01*
X78486000Y-41402000D01*
X78486000Y-33782000D01*
X79058357Y-33782000D01*
X79078884Y-34003535D01*
X79078885Y-34003537D01*
X79139769Y-34217523D01*
X79139775Y-34217538D01*
X79238938Y-34416683D01*
X79238943Y-34416691D01*
X79373020Y-34594238D01*
X79537437Y-34744123D01*
X79537439Y-34744125D01*
X79726595Y-34861245D01*
X79726596Y-34861245D01*
X79726599Y-34861247D01*
X79934060Y-34941618D01*
X80152757Y-34982500D01*
X80152759Y-34982500D01*
X80375241Y-34982500D01*
X80375243Y-34982500D01*
X80593940Y-34941618D01*
X80801401Y-34861247D01*
X80990562Y-34744124D01*
X81154981Y-34594236D01*
X81289058Y-34416689D01*
X81388229Y-34217528D01*
X81449115Y-34003536D01*
X81469643Y-33782000D01*
X81449115Y-33560464D01*
X81439878Y-33528000D01*
X147384357Y-33528000D01*
X147404884Y-33749535D01*
X147404885Y-33749537D01*
X147465769Y-33963523D01*
X147465775Y-33963538D01*
X147564938Y-34162683D01*
X147564943Y-34162691D01*
X147699020Y-34340238D01*
X147863437Y-34490123D01*
X147863439Y-34490125D01*
X148052595Y-34607245D01*
X148052596Y-34607245D01*
X148052599Y-34607247D01*
X148260060Y-34687618D01*
X148478757Y-34728500D01*
X148478759Y-34728500D01*
X148701241Y-34728500D01*
X148701243Y-34728500D01*
X148919940Y-34687618D01*
X149127401Y-34607247D01*
X149316562Y-34490124D01*
X149480981Y-34340236D01*
X149615058Y-34162689D01*
X149714229Y-33963528D01*
X149775115Y-33749536D01*
X149795643Y-33528000D01*
X149775115Y-33306464D01*
X149714229Y-33092472D01*
X149714224Y-33092461D01*
X149615061Y-32893316D01*
X149615056Y-32893308D01*
X149480979Y-32715761D01*
X149316562Y-32565876D01*
X149316560Y-32565874D01*
X149127404Y-32448754D01*
X149127398Y-32448752D01*
X148919940Y-32368382D01*
X148701243Y-32327500D01*
X148478757Y-32327500D01*
X148260060Y-32368382D01*
X148128864Y-32419207D01*
X148052601Y-32448752D01*
X148052595Y-32448754D01*
X147863439Y-32565874D01*
X147863437Y-32565876D01*
X147699020Y-32715761D01*
X147564943Y-32893308D01*
X147564938Y-32893316D01*
X147465775Y-33092461D01*
X147465769Y-33092476D01*
X147404885Y-33306462D01*
X147404884Y-33306464D01*
X147384357Y-33527999D01*
X147384357Y-33528000D01*
X81439878Y-33528000D01*
X81388229Y-33346472D01*
X81388224Y-33346461D01*
X81289061Y-33147316D01*
X81289056Y-33147308D01*
X81154979Y-32969761D01*
X80990562Y-32819876D01*
X80990560Y-32819874D01*
X80801404Y-32702754D01*
X80801398Y-32702752D01*
X80593940Y-32622382D01*
X80375243Y-32581500D01*
X80152757Y-32581500D01*
X79934060Y-32622382D01*
X79802864Y-32673207D01*
X79726601Y-32702752D01*
X79726595Y-32702754D01*
X79537439Y-32819874D01*
X79537437Y-32819876D01*
X79373020Y-32969761D01*
X79238943Y-33147308D01*
X79238938Y-33147316D01*
X79139775Y-33346461D01*
X79139769Y-33346476D01*
X79078885Y-33560462D01*
X79078884Y-33560464D01*
X79058357Y-33781999D01*
X79058357Y-33782000D01*
X78486000Y-33782000D01*
X78486000Y-29972006D01*
X78863700Y-29972006D01*
X78882864Y-30203297D01*
X78882866Y-30203308D01*
X78939842Y-30428300D01*
X79033075Y-30640848D01*
X79160016Y-30835147D01*
X79160019Y-30835151D01*
X79160021Y-30835153D01*
X79317216Y-31005913D01*
X79317219Y-31005915D01*
X79317222Y-31005918D01*
X79500365Y-31148464D01*
X79500371Y-31148468D01*
X79500374Y-31148470D01*
X79704497Y-31258936D01*
X79783419Y-31286030D01*
X79924015Y-31334297D01*
X79924017Y-31334297D01*
X79924019Y-31334298D01*
X80152951Y-31372500D01*
X80152952Y-31372500D01*
X80385048Y-31372500D01*
X80385049Y-31372500D01*
X80613981Y-31334298D01*
X80833503Y-31258936D01*
X81037626Y-31148470D01*
X81220784Y-31005913D01*
X81229130Y-30996846D01*
X81289010Y-30960854D01*
X81358849Y-30962949D01*
X81416468Y-31002469D01*
X81436544Y-31037491D01*
X81465203Y-31114330D01*
X81465206Y-31114335D01*
X81551452Y-31229544D01*
X81551455Y-31229547D01*
X81666664Y-31315793D01*
X81666671Y-31315797D01*
X81801517Y-31366091D01*
X81801516Y-31366091D01*
X81808444Y-31366835D01*
X81861127Y-31372500D01*
X83756872Y-31372499D01*
X83816483Y-31366091D01*
X83951331Y-31315796D01*
X84066546Y-31229546D01*
X84152796Y-31114331D01*
X84203091Y-30979483D01*
X84209500Y-30919873D01*
X84209499Y-29793373D01*
X112045723Y-29793373D01*
X112075881Y-30093160D01*
X112075882Y-30093162D01*
X112145728Y-30386252D01*
X112145730Y-30386259D01*
X112145731Y-30386261D01*
X112151215Y-30400500D01*
X112254020Y-30667427D01*
X112254024Y-30667436D01*
X112398825Y-30931665D01*
X112398829Y-30931671D01*
X112558568Y-31148470D01*
X112577554Y-31174238D01*
X112714459Y-31315797D01*
X112787019Y-31390823D01*
X113023478Y-31577553D01*
X113023480Y-31577554D01*
X113023485Y-31577558D01*
X113282730Y-31731109D01*
X113560128Y-31848736D01*
X113850729Y-31928340D01*
X114149347Y-31968500D01*
X114149351Y-31968500D01*
X114375252Y-31968500D01*
X114539164Y-31957526D01*
X114600634Y-31953412D01*
X114895903Y-31893396D01*
X115180537Y-31794560D01*
X115449459Y-31658668D01*
X115697869Y-31488144D01*
X115921333Y-31286032D01*
X116115865Y-31055939D01*
X116277993Y-30801970D01*
X116404823Y-30528658D01*
X116494093Y-30240879D01*
X116544209Y-29943770D01*
X116554277Y-29642631D01*
X116524118Y-29342838D01*
X116454269Y-29049739D01*
X116345977Y-28768566D01*
X116201175Y-28504335D01*
X116022446Y-28261762D01*
X115812980Y-28045176D01*
X115689742Y-27947856D01*
X115576521Y-27858446D01*
X115576517Y-27858443D01*
X115576515Y-27858442D01*
X115317270Y-27704891D01*
X115039872Y-27587264D01*
X115039863Y-27587261D01*
X114749272Y-27507660D01*
X114674616Y-27497620D01*
X114450653Y-27467500D01*
X114224756Y-27467500D01*
X114224748Y-27467500D01*
X113999368Y-27482587D01*
X113999359Y-27482589D01*
X113704094Y-27542604D01*
X113419464Y-27641439D01*
X113419459Y-27641441D01*
X113150546Y-27777328D01*
X112902125Y-27947860D01*
X112678665Y-28149969D01*
X112484132Y-28380064D01*
X112322006Y-28634030D01*
X112322005Y-28634032D01*
X112231220Y-28829671D01*
X112195177Y-28907342D01*
X112185640Y-28938087D01*
X112105907Y-29195118D01*
X112055791Y-29492230D01*
X112045723Y-29793373D01*
X84209499Y-29793373D01*
X84209499Y-29024128D01*
X84203091Y-28964517D01*
X84194514Y-28941522D01*
X84152797Y-28829671D01*
X84152793Y-28829664D01*
X84066547Y-28714455D01*
X84066544Y-28714452D01*
X83951335Y-28628206D01*
X83951328Y-28628202D01*
X83816482Y-28577908D01*
X83816483Y-28577908D01*
X83756883Y-28571501D01*
X83756881Y-28571500D01*
X83756873Y-28571500D01*
X83756864Y-28571500D01*
X81861129Y-28571500D01*
X81861123Y-28571501D01*
X81801516Y-28577908D01*
X81666671Y-28628202D01*
X81666664Y-28628206D01*
X81551455Y-28714452D01*
X81551452Y-28714455D01*
X81465206Y-28829664D01*
X81465203Y-28829670D01*
X81436544Y-28906508D01*
X81394672Y-28962441D01*
X81329208Y-28986858D01*
X81260935Y-28972006D01*
X81229135Y-28947158D01*
X81220784Y-28938087D01*
X81220778Y-28938082D01*
X81220777Y-28938081D01*
X81037634Y-28795535D01*
X81037628Y-28795531D01*
X80833504Y-28685064D01*
X80833495Y-28685061D01*
X80613984Y-28609702D01*
X80423450Y-28577908D01*
X80385049Y-28571500D01*
X80152951Y-28571500D01*
X80114550Y-28577908D01*
X79924015Y-28609702D01*
X79704504Y-28685061D01*
X79704495Y-28685064D01*
X79500371Y-28795531D01*
X79500365Y-28795535D01*
X79317222Y-28938081D01*
X79317219Y-28938084D01*
X79317216Y-28938086D01*
X79317216Y-28938087D01*
X79277669Y-28981047D01*
X79160016Y-29108852D01*
X79033075Y-29303151D01*
X78939842Y-29515699D01*
X78882866Y-29740691D01*
X78882864Y-29740702D01*
X78863700Y-29971993D01*
X78863700Y-29972006D01*
X78486000Y-29972006D01*
X78486000Y-27302000D01*
X78505685Y-27234961D01*
X78558489Y-27189206D01*
X78610000Y-27178000D01*
X149990000Y-27178000D01*
X150057039Y-27197685D01*
G37*
G04 #@! TD.AperFunction*
M02*
