G04 #@! TF.GenerationSoftware,KiCad,Pcbnew,7.0.8*
G04 #@! TF.CreationDate,2023-10-22T13:22:11+01:00*
G04 #@! TF.ProjectId,Badge,42616467-652e-46b6-9963-61645f706362,rev?*
G04 #@! TF.SameCoordinates,Original*
G04 #@! TF.FileFunction,Copper,L1,Top*
G04 #@! TF.FilePolarity,Positive*
%FSLAX46Y46*%
G04 Gerber Fmt 4.6, Leading zero omitted, Abs format (unit mm)*
G04 Created by KiCad (PCBNEW 7.0.8) date 2023-10-22 13:22:11*
%MOMM*%
%LPD*%
G01*
G04 APERTURE LIST*
G04 #@! TA.AperFunction,ComponentPad*
%ADD10R,1.600000X1.600000*%
G04 #@! TD*
G04 #@! TA.AperFunction,ComponentPad*
%ADD11C,1.600000*%
G04 #@! TD*
G04 #@! TA.AperFunction,ComponentPad*
%ADD12C,1.400000*%
G04 #@! TD*
G04 #@! TA.AperFunction,ComponentPad*
%ADD13O,1.400000X1.400000*%
G04 #@! TD*
G04 #@! TA.AperFunction,ComponentPad*
%ADD14R,1.050000X1.500000*%
G04 #@! TD*
G04 #@! TA.AperFunction,ComponentPad*
%ADD15O,1.050000X1.500000*%
G04 #@! TD*
G04 #@! TA.AperFunction,ComponentPad*
%ADD16C,1.800000*%
G04 #@! TD*
G04 #@! TA.AperFunction,ComponentPad*
%ADD17R,1.800000X1.800000*%
G04 #@! TD*
G04 #@! TA.AperFunction,ViaPad*
%ADD18C,0.800000*%
G04 #@! TD*
G04 #@! TA.AperFunction,Conductor*
%ADD19C,0.250000*%
G04 #@! TD*
G04 APERTURE END LIST*
D10*
X134874000Y-51054000D03*
D11*
X137374000Y-51054000D03*
D10*
X90342323Y-51054000D03*
D11*
X92842323Y-51054000D03*
D12*
X148590000Y-33528000D03*
D13*
X148590000Y-41148000D03*
D12*
X80264000Y-33782000D03*
D13*
X80264000Y-41402000D03*
X148590000Y-50546000D03*
D12*
X148590000Y-58166000D03*
D14*
X138684000Y-61468000D03*
D15*
X137414000Y-61468000D03*
X136144000Y-61468000D03*
D16*
X80269000Y-29972000D03*
D17*
X82809000Y-29972000D03*
D16*
X148590000Y-29972000D03*
D17*
X146050000Y-29972000D03*
D16*
X80269000Y-61976000D03*
D17*
X82809000Y-61976000D03*
D13*
X80264000Y-50800000D03*
D12*
X80264000Y-58420000D03*
D13*
X145288000Y-49784000D03*
D12*
X145288000Y-42164000D03*
D14*
X93980000Y-61976000D03*
D15*
X92710000Y-61976000D03*
X91440000Y-61976000D03*
D13*
X83566000Y-50546000D03*
D12*
X83566000Y-42926000D03*
D17*
X146050000Y-61722000D03*
D16*
X148590000Y-61722000D03*
D18*
X128016000Y-58420000D03*
X102108000Y-58166000D03*
D19*
X127770005Y-51077636D02*
G75*
G03*
X126355769Y-50491871I-1414205J-1414264D01*
G01*
X92709977Y-56704531D02*
G75*
G03*
X92124212Y-55290318I-1999977J31D01*
G01*
X85414323Y-49526120D02*
G75*
G03*
X84000111Y-50111891I-23J-1999980D01*
G01*
X133935801Y-50115773D02*
G75*
G03*
X132521573Y-49530000I-1414201J-1414227D01*
G01*
X144753573Y-53553980D02*
G75*
G03*
X146167786Y-52968212I27J1999980D01*
G01*
X92710000Y-61976000D02*
X92710000Y-56704531D01*
X86360000Y-49526104D02*
X91652807Y-49526104D01*
X92124213Y-55290317D02*
X86360000Y-49526104D01*
X85414323Y-49526104D02*
X86360000Y-49526104D01*
X133935787Y-50115787D02*
X134874000Y-51054000D01*
X91656703Y-49530000D02*
X132521573Y-49530000D01*
X91652807Y-49526104D02*
X91656703Y-49530000D01*
X83566000Y-50546000D02*
X84000110Y-50111890D01*
X148590000Y-33528000D02*
X148590000Y-29972000D01*
X137414000Y-60721675D02*
X137414000Y-61468000D01*
X127769983Y-51077658D02*
X137414000Y-60721675D01*
X93404452Y-50491871D02*
X126355769Y-50491871D01*
X92842323Y-51054000D02*
X93404452Y-50491871D01*
X146167787Y-52968213D02*
X148590000Y-50546000D01*
X139874000Y-53554000D02*
X144753573Y-53554000D01*
X139874000Y-53554000D02*
X139874000Y-62056000D01*
X137374000Y-51054000D02*
X139874000Y-53554000D01*
X136472675Y-62543000D02*
X139387000Y-62543000D01*
X136144000Y-61468000D02*
X136144000Y-62214325D01*
X139387000Y-62543000D02*
X139874000Y-62056000D01*
X136144000Y-62214325D02*
X136472675Y-62543000D01*
X148590000Y-50546000D02*
X148590000Y-41148000D01*
X148590000Y-61722000D02*
X148590000Y-58166000D01*
X80264000Y-50800000D02*
X80264000Y-41402000D01*
X80269000Y-58425000D02*
X80264000Y-58420000D01*
X80269000Y-61976000D02*
X80269000Y-58425000D01*
X80269000Y-33777000D02*
X80264000Y-33782000D01*
X80269000Y-29972000D02*
X80269000Y-33777000D01*
X144795736Y-49291736D02*
X145288000Y-49784000D01*
X91440000Y-61976000D02*
X80264000Y-50800000D01*
X128270000Y-58420000D02*
X127862000Y-58012000D01*
X80264000Y-29977000D02*
X80269000Y-29972000D01*
G04 #@! TA.AperFunction,Conductor*
G36*
X150057039Y-27197685D02*
G01*
X150102794Y-27250489D01*
X150114000Y-27302000D01*
X150114000Y-29368514D01*
X150094315Y-29435553D01*
X150041511Y-29481308D01*
X149972353Y-29491252D01*
X149908797Y-29462227D01*
X149876444Y-29418324D01*
X149825924Y-29303151D01*
X149698983Y-29108852D01*
X149698980Y-29108849D01*
X149698979Y-29108847D01*
X149541784Y-28938087D01*
X149541779Y-28938083D01*
X149541777Y-28938081D01*
X149358634Y-28795535D01*
X149358628Y-28795531D01*
X149154504Y-28685064D01*
X149154495Y-28685061D01*
X148934984Y-28609702D01*
X148747404Y-28578401D01*
X148706049Y-28571500D01*
X148473951Y-28571500D01*
X148432596Y-28578401D01*
X148245015Y-28609702D01*
X148025504Y-28685061D01*
X148025495Y-28685064D01*
X147821371Y-28795531D01*
X147821365Y-28795535D01*
X147638222Y-28938081D01*
X147638215Y-28938087D01*
X147629484Y-28947572D01*
X147569595Y-28983561D01*
X147499757Y-28981458D01*
X147442143Y-28941932D01*
X147422075Y-28906918D01*
X147393355Y-28829915D01*
X147393350Y-28829906D01*
X147307190Y-28714812D01*
X147307187Y-28714809D01*
X147192093Y-28628649D01*
X147192086Y-28628645D01*
X147057379Y-28578403D01*
X147057372Y-28578401D01*
X146997844Y-28572000D01*
X146300000Y-28572000D01*
X146300000Y-29597810D01*
X146247453Y-29561984D01*
X146117827Y-29522000D01*
X146016276Y-29522000D01*
X145915862Y-29537135D01*
X145800000Y-29592931D01*
X145800000Y-28572000D01*
X145102155Y-28572000D01*
X145042627Y-28578401D01*
X145042620Y-28578403D01*
X144907913Y-28628645D01*
X144907906Y-28628649D01*
X144792812Y-28714809D01*
X144792809Y-28714812D01*
X144706649Y-28829906D01*
X144706645Y-28829913D01*
X144656403Y-28964620D01*
X144656401Y-28964627D01*
X144650000Y-29024155D01*
X144650000Y-29722000D01*
X145674722Y-29722000D01*
X145626375Y-29805740D01*
X145596190Y-29937992D01*
X145606327Y-30073265D01*
X145655887Y-30199541D01*
X145673797Y-30222000D01*
X144650000Y-30222000D01*
X144650000Y-30919844D01*
X144656401Y-30979372D01*
X144656403Y-30979379D01*
X144706645Y-31114086D01*
X144706649Y-31114093D01*
X144792809Y-31229187D01*
X144792812Y-31229190D01*
X144907906Y-31315350D01*
X144907913Y-31315354D01*
X145042620Y-31365596D01*
X145042627Y-31365598D01*
X145102155Y-31371999D01*
X145102172Y-31372000D01*
X145800000Y-31372000D01*
X145800000Y-30346189D01*
X145852547Y-30382016D01*
X145982173Y-30422000D01*
X146083724Y-30422000D01*
X146184138Y-30406865D01*
X146300000Y-30351068D01*
X146300000Y-31372000D01*
X146997828Y-31372000D01*
X146997844Y-31371999D01*
X147057372Y-31365598D01*
X147057379Y-31365596D01*
X147192086Y-31315354D01*
X147192093Y-31315350D01*
X147307187Y-31229190D01*
X147307190Y-31229187D01*
X147393350Y-31114093D01*
X147393355Y-31114084D01*
X147422075Y-31037081D01*
X147463945Y-30981147D01*
X147529409Y-30956729D01*
X147597682Y-30971580D01*
X147629484Y-30996428D01*
X147638216Y-31005913D01*
X147638219Y-31005915D01*
X147638222Y-31005918D01*
X147821365Y-31148464D01*
X147821376Y-31148471D01*
X147899517Y-31190759D01*
X147949108Y-31239978D01*
X147964500Y-31299814D01*
X147964500Y-32434233D01*
X147944815Y-32501272D01*
X147905778Y-32539660D01*
X147863436Y-32565877D01*
X147699020Y-32715761D01*
X147564943Y-32893308D01*
X147564938Y-32893316D01*
X147465775Y-33092461D01*
X147465769Y-33092476D01*
X147404885Y-33306462D01*
X147404884Y-33306464D01*
X147384357Y-33527999D01*
X147384357Y-33528000D01*
X147404884Y-33749535D01*
X147404885Y-33749537D01*
X147465769Y-33963523D01*
X147465775Y-33963538D01*
X147564938Y-34162683D01*
X147564943Y-34162691D01*
X147699020Y-34340238D01*
X147863437Y-34490123D01*
X147863439Y-34490125D01*
X148052595Y-34607245D01*
X148052596Y-34607245D01*
X148052599Y-34607247D01*
X148260060Y-34687618D01*
X148478757Y-34728500D01*
X148478759Y-34728500D01*
X148701241Y-34728500D01*
X148701243Y-34728500D01*
X148919940Y-34687618D01*
X149127401Y-34607247D01*
X149316562Y-34490124D01*
X149480981Y-34340236D01*
X149615058Y-34162689D01*
X149714229Y-33963528D01*
X149775115Y-33749536D01*
X149795643Y-33528000D01*
X149775115Y-33306464D01*
X149714229Y-33092472D01*
X149714224Y-33092461D01*
X149615061Y-32893316D01*
X149615056Y-32893308D01*
X149480979Y-32715761D01*
X149316563Y-32565877D01*
X149316562Y-32565876D01*
X149274222Y-32539660D01*
X149227587Y-32487631D01*
X149215500Y-32434233D01*
X149215500Y-31299814D01*
X149235185Y-31232775D01*
X149280483Y-31190759D01*
X149311018Y-31174234D01*
X149358626Y-31148470D01*
X149541784Y-31005913D01*
X149698979Y-30835153D01*
X149825924Y-30640849D01*
X149876444Y-30525674D01*
X149921400Y-30472189D01*
X149988136Y-30451499D01*
X150055464Y-30470174D01*
X150102007Y-30522284D01*
X150114000Y-30575485D01*
X150114000Y-61118514D01*
X150094315Y-61185553D01*
X150041511Y-61231308D01*
X149972353Y-61241252D01*
X149908797Y-61212227D01*
X149876444Y-61168324D01*
X149825924Y-61053151D01*
X149698983Y-60858852D01*
X149698980Y-60858849D01*
X149698979Y-60858847D01*
X149541784Y-60688087D01*
X149541779Y-60688083D01*
X149541777Y-60688081D01*
X149358634Y-60545535D01*
X149358619Y-60545525D01*
X149280482Y-60503239D01*
X149230891Y-60454020D01*
X149215500Y-60394185D01*
X149215500Y-59259765D01*
X149235185Y-59192726D01*
X149274220Y-59154340D01*
X149316562Y-59128124D01*
X149480981Y-58978236D01*
X149615058Y-58800689D01*
X149714229Y-58601528D01*
X149775115Y-58387536D01*
X149795643Y-58166000D01*
X149775115Y-57944464D01*
X149714229Y-57730472D01*
X149714224Y-57730461D01*
X149615061Y-57531316D01*
X149615056Y-57531308D01*
X149480979Y-57353761D01*
X149316562Y-57203876D01*
X149316560Y-57203874D01*
X149127404Y-57086754D01*
X149127398Y-57086752D01*
X148919940Y-57006382D01*
X148701243Y-56965500D01*
X148478757Y-56965500D01*
X148260060Y-57006382D01*
X148128864Y-57057207D01*
X148052601Y-57086752D01*
X148052595Y-57086754D01*
X147863439Y-57203874D01*
X147863437Y-57203876D01*
X147699020Y-57353761D01*
X147564943Y-57531308D01*
X147564938Y-57531316D01*
X147465775Y-57730461D01*
X147465769Y-57730476D01*
X147404885Y-57944462D01*
X147404884Y-57944464D01*
X147384357Y-58165999D01*
X147384357Y-58166000D01*
X147404884Y-58387535D01*
X147404885Y-58387537D01*
X147465769Y-58601523D01*
X147465775Y-58601538D01*
X147564938Y-58800683D01*
X147564943Y-58800691D01*
X147699020Y-58978238D01*
X147863433Y-59128120D01*
X147863435Y-59128122D01*
X147863437Y-59128123D01*
X147863438Y-59128124D01*
X147905778Y-59154339D01*
X147952412Y-59206364D01*
X147964500Y-59259765D01*
X147964500Y-60394185D01*
X147944815Y-60461224D01*
X147899518Y-60503239D01*
X147821380Y-60545525D01*
X147821365Y-60545535D01*
X147638222Y-60688081D01*
X147638215Y-60688087D01*
X147629484Y-60697572D01*
X147569595Y-60733561D01*
X147499757Y-60731458D01*
X147442143Y-60691932D01*
X147422075Y-60656918D01*
X147393355Y-60579915D01*
X147393350Y-60579906D01*
X147307190Y-60464812D01*
X147307187Y-60464809D01*
X147192093Y-60378649D01*
X147192086Y-60378645D01*
X147057379Y-60328403D01*
X147057372Y-60328401D01*
X146997844Y-60322000D01*
X146300000Y-60322000D01*
X146300000Y-61347810D01*
X146247453Y-61311984D01*
X146117827Y-61272000D01*
X146016276Y-61272000D01*
X145915862Y-61287135D01*
X145800000Y-61342931D01*
X145800000Y-60322000D01*
X145102155Y-60322000D01*
X145042627Y-60328401D01*
X145042620Y-60328403D01*
X144907913Y-60378645D01*
X144907906Y-60378649D01*
X144792812Y-60464809D01*
X144792809Y-60464812D01*
X144706649Y-60579906D01*
X144706645Y-60579913D01*
X144656403Y-60714620D01*
X144656401Y-60714627D01*
X144650000Y-60774155D01*
X144650000Y-61472000D01*
X145674722Y-61472000D01*
X145626375Y-61555740D01*
X145596190Y-61687992D01*
X145606327Y-61823265D01*
X145655887Y-61949541D01*
X145673797Y-61972000D01*
X144650000Y-61972000D01*
X144650000Y-62669844D01*
X144656401Y-62729372D01*
X144656403Y-62729379D01*
X144706645Y-62864086D01*
X144706649Y-62864093D01*
X144792809Y-62979187D01*
X144792812Y-62979190D01*
X144907906Y-63065350D01*
X144907913Y-63065354D01*
X145042620Y-63115596D01*
X145042627Y-63115598D01*
X145102155Y-63121999D01*
X145102172Y-63122000D01*
X145800000Y-63122000D01*
X145800000Y-62096189D01*
X145852547Y-62132016D01*
X145982173Y-62172000D01*
X146083724Y-62172000D01*
X146184138Y-62156865D01*
X146300000Y-62101068D01*
X146300000Y-63122000D01*
X146997828Y-63122000D01*
X146997844Y-63121999D01*
X147057372Y-63115598D01*
X147057379Y-63115596D01*
X147192086Y-63065354D01*
X147192093Y-63065350D01*
X147307187Y-62979190D01*
X147307190Y-62979187D01*
X147393350Y-62864093D01*
X147393355Y-62864084D01*
X147422075Y-62787081D01*
X147463945Y-62731147D01*
X147529409Y-62706729D01*
X147597682Y-62721580D01*
X147629484Y-62746428D01*
X147638216Y-62755913D01*
X147638219Y-62755915D01*
X147638222Y-62755918D01*
X147821365Y-62898464D01*
X147821371Y-62898468D01*
X147821374Y-62898470D01*
X147950460Y-62968328D01*
X148020182Y-63006060D01*
X148025497Y-63008936D01*
X148139487Y-63048068D01*
X148245015Y-63084297D01*
X148245017Y-63084297D01*
X148245019Y-63084298D01*
X148473951Y-63122500D01*
X148473952Y-63122500D01*
X148706048Y-63122500D01*
X148706049Y-63122500D01*
X148934981Y-63084298D01*
X149154503Y-63008936D01*
X149358626Y-62898470D01*
X149541784Y-62755913D01*
X149698979Y-62585153D01*
X149825924Y-62390849D01*
X149876444Y-62275674D01*
X149921400Y-62222189D01*
X149988136Y-62201499D01*
X150055464Y-62220174D01*
X150102007Y-62272284D01*
X150114000Y-62325485D01*
X150114000Y-64392000D01*
X150094315Y-64459039D01*
X150041511Y-64504794D01*
X149990000Y-64516000D01*
X78610000Y-64516000D01*
X78542961Y-64496315D01*
X78497206Y-64443511D01*
X78486000Y-64392000D01*
X78486000Y-61976006D01*
X78863700Y-61976006D01*
X78882864Y-62207297D01*
X78882866Y-62207308D01*
X78939842Y-62432300D01*
X79033075Y-62644848D01*
X79160016Y-62839147D01*
X79160019Y-62839151D01*
X79160021Y-62839153D01*
X79317216Y-63009913D01*
X79317219Y-63009915D01*
X79317222Y-63009918D01*
X79500365Y-63152464D01*
X79500371Y-63152468D01*
X79500374Y-63152470D01*
X79704497Y-63262936D01*
X79818487Y-63302068D01*
X79924015Y-63338297D01*
X79924017Y-63338297D01*
X79924019Y-63338298D01*
X80152951Y-63376500D01*
X80152952Y-63376500D01*
X80385048Y-63376500D01*
X80385049Y-63376500D01*
X80613981Y-63338298D01*
X80833503Y-63262936D01*
X81037626Y-63152470D01*
X81042807Y-63148438D01*
X81139221Y-63073396D01*
X81220784Y-63009913D01*
X81229511Y-63000432D01*
X81289394Y-62964441D01*
X81359232Y-62966538D01*
X81416850Y-63006060D01*
X81436924Y-63041080D01*
X81465645Y-63118086D01*
X81465649Y-63118093D01*
X81551809Y-63233187D01*
X81551812Y-63233190D01*
X81666906Y-63319350D01*
X81666913Y-63319354D01*
X81801620Y-63369596D01*
X81801627Y-63369598D01*
X81861155Y-63375999D01*
X81861172Y-63376000D01*
X82559000Y-63376000D01*
X82559000Y-62350189D01*
X82611547Y-62386016D01*
X82741173Y-62426000D01*
X82842724Y-62426000D01*
X82943138Y-62410865D01*
X83059000Y-62355068D01*
X83059000Y-63376000D01*
X83756828Y-63376000D01*
X83756844Y-63375999D01*
X83816372Y-63369598D01*
X83816379Y-63369596D01*
X83951086Y-63319354D01*
X83951093Y-63319350D01*
X84066187Y-63233190D01*
X84066190Y-63233187D01*
X84152350Y-63118093D01*
X84152354Y-63118086D01*
X84202596Y-62983379D01*
X84202598Y-62983372D01*
X84208999Y-62923844D01*
X84209000Y-62923827D01*
X84209000Y-62226000D01*
X83184278Y-62226000D01*
X83232625Y-62142260D01*
X83262810Y-62010008D01*
X83252673Y-61874735D01*
X83203113Y-61748459D01*
X83185203Y-61726000D01*
X84209000Y-61726000D01*
X84209000Y-61028172D01*
X84208999Y-61028155D01*
X84202598Y-60968627D01*
X84202596Y-60968620D01*
X84152354Y-60833913D01*
X84152350Y-60833906D01*
X84066190Y-60718812D01*
X84066187Y-60718809D01*
X83951093Y-60632649D01*
X83951086Y-60632645D01*
X83816379Y-60582403D01*
X83816372Y-60582401D01*
X83756844Y-60576000D01*
X83059000Y-60576000D01*
X83059000Y-61601810D01*
X83006453Y-61565984D01*
X82876827Y-61526000D01*
X82775276Y-61526000D01*
X82674862Y-61541135D01*
X82559000Y-61596931D01*
X82559000Y-60576000D01*
X81861155Y-60576000D01*
X81801627Y-60582401D01*
X81801620Y-60582403D01*
X81666913Y-60632645D01*
X81666906Y-60632649D01*
X81551812Y-60718809D01*
X81551809Y-60718812D01*
X81465649Y-60833906D01*
X81465646Y-60833911D01*
X81436924Y-60910920D01*
X81395052Y-60966853D01*
X81329588Y-60991270D01*
X81261315Y-60976418D01*
X81229514Y-60951571D01*
X81220784Y-60942087D01*
X81220779Y-60942083D01*
X81220777Y-60942081D01*
X81037634Y-60799535D01*
X81037619Y-60799525D01*
X80959482Y-60757239D01*
X80909891Y-60708020D01*
X80894500Y-60648185D01*
X80894500Y-59510669D01*
X80914185Y-59443630D01*
X80953223Y-59405242D01*
X80990562Y-59382124D01*
X81154981Y-59232236D01*
X81289058Y-59054689D01*
X81388229Y-58855528D01*
X81449115Y-58641536D01*
X81469643Y-58420000D01*
X81449115Y-58198464D01*
X81388229Y-57984472D01*
X81388224Y-57984461D01*
X81289061Y-57785316D01*
X81289056Y-57785308D01*
X81154979Y-57607761D01*
X80990562Y-57457876D01*
X80990560Y-57457874D01*
X80801404Y-57340754D01*
X80801398Y-57340752D01*
X80593940Y-57260382D01*
X80375243Y-57219500D01*
X80152757Y-57219500D01*
X79934060Y-57260382D01*
X79802864Y-57311207D01*
X79726601Y-57340752D01*
X79726595Y-57340754D01*
X79537439Y-57457874D01*
X79537437Y-57457876D01*
X79373020Y-57607761D01*
X79238943Y-57785308D01*
X79238938Y-57785316D01*
X79139775Y-57984461D01*
X79139769Y-57984476D01*
X79078885Y-58198462D01*
X79078884Y-58198464D01*
X79058357Y-58419999D01*
X79058357Y-58420000D01*
X79078884Y-58641535D01*
X79078885Y-58641537D01*
X79139769Y-58855523D01*
X79139775Y-58855538D01*
X79238938Y-59054683D01*
X79238943Y-59054691D01*
X79373020Y-59232238D01*
X79537433Y-59382120D01*
X79537435Y-59382121D01*
X79537438Y-59382124D01*
X79584778Y-59411435D01*
X79631412Y-59463461D01*
X79643500Y-59516861D01*
X79643500Y-60648185D01*
X79623815Y-60715224D01*
X79578518Y-60757239D01*
X79500380Y-60799525D01*
X79500365Y-60799535D01*
X79317222Y-60942081D01*
X79317219Y-60942084D01*
X79317216Y-60942086D01*
X79317216Y-60942087D01*
X79292791Y-60968620D01*
X79160016Y-61112852D01*
X79033075Y-61307151D01*
X78939842Y-61519699D01*
X78882866Y-61744691D01*
X78882864Y-61744702D01*
X78863700Y-61975993D01*
X78863700Y-61976006D01*
X78486000Y-61976006D01*
X78486000Y-50800000D01*
X79058357Y-50800000D01*
X79078884Y-51021535D01*
X79078885Y-51021537D01*
X79139769Y-51235523D01*
X79139775Y-51235538D01*
X79238938Y-51434683D01*
X79238943Y-51434691D01*
X79373020Y-51612238D01*
X79537437Y-51762123D01*
X79537439Y-51762125D01*
X79726595Y-51879245D01*
X79726596Y-51879245D01*
X79726599Y-51879247D01*
X79934060Y-51959618D01*
X80152757Y-52000500D01*
X80152759Y-52000500D01*
X80375241Y-52000500D01*
X80375243Y-52000500D01*
X80483429Y-51980276D01*
X80552943Y-51987307D01*
X80593894Y-52014484D01*
X90378181Y-61798771D01*
X90411666Y-61860094D01*
X90414500Y-61886452D01*
X90414500Y-62251380D01*
X90416206Y-62268702D01*
X90429337Y-62402031D01*
X90487978Y-62595345D01*
X90583198Y-62773488D01*
X90583203Y-62773495D01*
X90711352Y-62929647D01*
X90818234Y-63017362D01*
X90867506Y-63057798D01*
X90867509Y-63057799D01*
X90867511Y-63057801D01*
X91045654Y-63153021D01*
X91045656Y-63153021D01*
X91045659Y-63153023D01*
X91238967Y-63211662D01*
X91440000Y-63231462D01*
X91641033Y-63211662D01*
X91834341Y-63153023D01*
X92012494Y-63057798D01*
X92012498Y-63057794D01*
X92016546Y-63055631D01*
X92084949Y-63041389D01*
X92133454Y-63055631D01*
X92137502Y-63057794D01*
X92137506Y-63057798D01*
X92315659Y-63153023D01*
X92508967Y-63211662D01*
X92710000Y-63231462D01*
X92911033Y-63211662D01*
X93104341Y-63153023D01*
X93104344Y-63153021D01*
X93105423Y-63152694D01*
X93175290Y-63152070D01*
X93204380Y-63166470D01*
X93204886Y-63165546D01*
X93212671Y-63169797D01*
X93347517Y-63220091D01*
X93347516Y-63220091D01*
X93354444Y-63220835D01*
X93407127Y-63226500D01*
X94552872Y-63226499D01*
X94612483Y-63220091D01*
X94747331Y-63169796D01*
X94862546Y-63083546D01*
X94948796Y-62968331D01*
X94999091Y-62833483D01*
X95005500Y-62773873D01*
X95005499Y-61178128D01*
X94999091Y-61118517D01*
X94996976Y-61112847D01*
X94948797Y-60983671D01*
X94948793Y-60983664D01*
X94862547Y-60868455D01*
X94862544Y-60868452D01*
X94747335Y-60782206D01*
X94747328Y-60782202D01*
X94612482Y-60731908D01*
X94612483Y-60731908D01*
X94552883Y-60725501D01*
X94552881Y-60725500D01*
X94552873Y-60725500D01*
X94552865Y-60725500D01*
X93459500Y-60725500D01*
X93392461Y-60705815D01*
X93346706Y-60653011D01*
X93335500Y-60601500D01*
X93335500Y-56663548D01*
X93335477Y-56662832D01*
X93335479Y-56557096D01*
X93302467Y-56264061D01*
X93302464Y-56264050D01*
X93302464Y-56264044D01*
X93236854Y-55976573D01*
X93236852Y-55976564D01*
X93163808Y-55767807D01*
X93139461Y-55698224D01*
X93139460Y-55698223D01*
X93139460Y-55698222D01*
X93011515Y-55432534D01*
X92854628Y-55182843D01*
X92670770Y-54952287D01*
X92625393Y-54906909D01*
X92625371Y-54906884D01*
X90284667Y-52566180D01*
X90251182Y-52504857D01*
X90256166Y-52435165D01*
X90298038Y-52379232D01*
X90363502Y-52354815D01*
X90372348Y-52354499D01*
X91190194Y-52354499D01*
X91190195Y-52354499D01*
X91249806Y-52348091D01*
X91384654Y-52297796D01*
X91499869Y-52211546D01*
X91586119Y-52096331D01*
X91636414Y-51961483D01*
X91636415Y-51961472D01*
X91637688Y-51956088D01*
X91672256Y-51895369D01*
X91734164Y-51862978D01*
X91803756Y-51869199D01*
X91846048Y-51896912D01*
X92003181Y-52054045D01*
X92003184Y-52054047D01*
X92189589Y-52184568D01*
X92395827Y-52280739D01*
X92615631Y-52339635D01*
X92773114Y-52353413D01*
X92842321Y-52359468D01*
X92842323Y-52359468D01*
X92842325Y-52359468D01*
X92899130Y-52354498D01*
X93069015Y-52339635D01*
X93288819Y-52280739D01*
X93495057Y-52184568D01*
X93681462Y-52054047D01*
X93842370Y-51893139D01*
X93972891Y-51706734D01*
X94069062Y-51500496D01*
X94127958Y-51280692D01*
X94131909Y-51235538D01*
X94132344Y-51230563D01*
X94157797Y-51165494D01*
X94214388Y-51124516D01*
X94255872Y-51117371D01*
X126279825Y-51117371D01*
X126279829Y-51117372D01*
X126353742Y-51117371D01*
X126357798Y-51117504D01*
X126531129Y-51128861D01*
X126539172Y-51129919D01*
X126707547Y-51163408D01*
X126715378Y-51165507D01*
X126877933Y-51220683D01*
X126885422Y-51223784D01*
X127039396Y-51299712D01*
X127046420Y-51303767D01*
X127189157Y-51399138D01*
X127195598Y-51404080D01*
X127325837Y-51518292D01*
X127328798Y-51521065D01*
X127354548Y-51546813D01*
X135871184Y-60063449D01*
X135904669Y-60124772D01*
X135899685Y-60194464D01*
X135857813Y-60250397D01*
X135819500Y-60269790D01*
X135749656Y-60290977D01*
X135571511Y-60386198D01*
X135571504Y-60386203D01*
X135415352Y-60514352D01*
X135287203Y-60670504D01*
X135287198Y-60670511D01*
X135191978Y-60848654D01*
X135133337Y-61041968D01*
X135125798Y-61118517D01*
X135118500Y-61192620D01*
X135118500Y-61743380D01*
X135119744Y-61756008D01*
X135133337Y-61894031D01*
X135191978Y-62087345D01*
X135287198Y-62265488D01*
X135287201Y-62265492D01*
X135287202Y-62265494D01*
X135295557Y-62275675D01*
X135415352Y-62421647D01*
X135568244Y-62547121D01*
X135571506Y-62549798D01*
X135607645Y-62569114D01*
X135639525Y-62596017D01*
X135640314Y-62595229D01*
X135659991Y-62614906D01*
X135672626Y-62629699D01*
X135684404Y-62645909D01*
X135684406Y-62645912D01*
X135720309Y-62675613D01*
X135724620Y-62679535D01*
X135878567Y-62833482D01*
X135971869Y-62926784D01*
X135981694Y-62939048D01*
X135981915Y-62938866D01*
X135986885Y-62944873D01*
X135986888Y-62944876D01*
X135986889Y-62944877D01*
X136037326Y-62992241D01*
X136058205Y-63013120D01*
X136063679Y-63017366D01*
X136068117Y-63021156D01*
X136102093Y-63053062D01*
X136102097Y-63053064D01*
X136119648Y-63062713D01*
X136135906Y-63073392D01*
X136151739Y-63085674D01*
X136173690Y-63095172D01*
X136194512Y-63104183D01*
X136199756Y-63106752D01*
X136240583Y-63129197D01*
X136259987Y-63134179D01*
X136278385Y-63140478D01*
X136296780Y-63148438D01*
X136342804Y-63155726D01*
X136348507Y-63156907D01*
X136393656Y-63168500D01*
X136413691Y-63168500D01*
X136433088Y-63170026D01*
X136452871Y-63173160D01*
X136499259Y-63168775D01*
X136505097Y-63168500D01*
X139304257Y-63168500D01*
X139319877Y-63170224D01*
X139319904Y-63169939D01*
X139327660Y-63170671D01*
X139327667Y-63170673D01*
X139396814Y-63168500D01*
X139426350Y-63168500D01*
X139433228Y-63167630D01*
X139439041Y-63167172D01*
X139485627Y-63165709D01*
X139504869Y-63160117D01*
X139523912Y-63156174D01*
X139543792Y-63153664D01*
X139587122Y-63136507D01*
X139592646Y-63134617D01*
X139596396Y-63133527D01*
X139637390Y-63121618D01*
X139654629Y-63111422D01*
X139672103Y-63102862D01*
X139690727Y-63095488D01*
X139690727Y-63095487D01*
X139690732Y-63095486D01*
X139728449Y-63068082D01*
X139733305Y-63064892D01*
X139773420Y-63041170D01*
X139787589Y-63026999D01*
X139802379Y-63014368D01*
X139818587Y-63002594D01*
X139848299Y-62966676D01*
X139852212Y-62962376D01*
X140257785Y-62556803D01*
X140270041Y-62546987D01*
X140269858Y-62546765D01*
X140275875Y-62541787D01*
X140275874Y-62541787D01*
X140275877Y-62541786D01*
X140300251Y-62515829D01*
X140323227Y-62491364D01*
X140333671Y-62480918D01*
X140344120Y-62470471D01*
X140348379Y-62464978D01*
X140352152Y-62460561D01*
X140384062Y-62426582D01*
X140393715Y-62409020D01*
X140404389Y-62392770D01*
X140416673Y-62376936D01*
X140435180Y-62334167D01*
X140437749Y-62328924D01*
X140460196Y-62288093D01*
X140460197Y-62288092D01*
X140465177Y-62268691D01*
X140471478Y-62250288D01*
X140479438Y-62231896D01*
X140486730Y-62185849D01*
X140487911Y-62180152D01*
X140499500Y-62135019D01*
X140499500Y-62114983D01*
X140501027Y-62095582D01*
X140504160Y-62075804D01*
X140499775Y-62029415D01*
X140499500Y-62023577D01*
X140499500Y-54303500D01*
X140519185Y-54236461D01*
X140571989Y-54190706D01*
X140623500Y-54179500D01*
X144794609Y-54179500D01*
X144795225Y-54179480D01*
X144901009Y-54179482D01*
X145194045Y-54146469D01*
X145481541Y-54080853D01*
X145759883Y-53983461D01*
X146025571Y-53855516D01*
X146275262Y-53698628D01*
X146505818Y-53514770D01*
X146543995Y-53476593D01*
X146543999Y-53476590D01*
X146554205Y-53466383D01*
X146554207Y-53466383D01*
X146635439Y-53385151D01*
X146663783Y-53356808D01*
X146663783Y-53356806D01*
X146673987Y-53346603D01*
X146673990Y-53346598D01*
X148260107Y-51760482D01*
X148321428Y-51726999D01*
X148370570Y-51726276D01*
X148478757Y-51746500D01*
X148478759Y-51746500D01*
X148701241Y-51746500D01*
X148701243Y-51746500D01*
X148919940Y-51705618D01*
X149127401Y-51625247D01*
X149316562Y-51508124D01*
X149480981Y-51358236D01*
X149615058Y-51180689D01*
X149714229Y-50981528D01*
X149775115Y-50767536D01*
X149795643Y-50546000D01*
X149775115Y-50324464D01*
X149714229Y-50110472D01*
X149714224Y-50110461D01*
X149615061Y-49911316D01*
X149615056Y-49911308D01*
X149480979Y-49733761D01*
X149316563Y-49583877D01*
X149316562Y-49583876D01*
X149286595Y-49565321D01*
X149274222Y-49557660D01*
X149227587Y-49505631D01*
X149215500Y-49452233D01*
X149215500Y-42241765D01*
X149235185Y-42174726D01*
X149274220Y-42136340D01*
X149316562Y-42110124D01*
X149480981Y-41960236D01*
X149615058Y-41782689D01*
X149714229Y-41583528D01*
X149775115Y-41369536D01*
X149795643Y-41148000D01*
X149775115Y-40926464D01*
X149714229Y-40712472D01*
X149714224Y-40712461D01*
X149615061Y-40513316D01*
X149615056Y-40513308D01*
X149480979Y-40335761D01*
X149316562Y-40185876D01*
X149316560Y-40185874D01*
X149127404Y-40068754D01*
X149127398Y-40068752D01*
X148919940Y-39988382D01*
X148701243Y-39947500D01*
X148478757Y-39947500D01*
X148260060Y-39988382D01*
X148128864Y-40039207D01*
X148052601Y-40068752D01*
X148052595Y-40068754D01*
X147863439Y-40185874D01*
X147863437Y-40185876D01*
X147699020Y-40335761D01*
X147564943Y-40513308D01*
X147564938Y-40513316D01*
X147465775Y-40712461D01*
X147465769Y-40712476D01*
X147404885Y-40926462D01*
X147404884Y-40926464D01*
X147384357Y-41147999D01*
X147384357Y-41148000D01*
X147404884Y-41369535D01*
X147404885Y-41369537D01*
X147465769Y-41583523D01*
X147465775Y-41583538D01*
X147564938Y-41782683D01*
X147564943Y-41782691D01*
X147699020Y-41960238D01*
X147863433Y-42110120D01*
X147863435Y-42110122D01*
X147863437Y-42110123D01*
X147863438Y-42110124D01*
X147905778Y-42136339D01*
X147952412Y-42188364D01*
X147964500Y-42241765D01*
X147964500Y-49452233D01*
X147944815Y-49519272D01*
X147905778Y-49557660D01*
X147863436Y-49583877D01*
X147699020Y-49733761D01*
X147564943Y-49911308D01*
X147564938Y-49911316D01*
X147465775Y-50110461D01*
X147465769Y-50110476D01*
X147404885Y-50324462D01*
X147404884Y-50324464D01*
X147393974Y-50442211D01*
X147384357Y-50546000D01*
X147398268Y-50696131D01*
X147404886Y-50767546D01*
X147405317Y-50769854D01*
X147405203Y-50770973D01*
X147405414Y-50773244D01*
X147404969Y-50773285D01*
X147398275Y-50839368D01*
X147371106Y-50880301D01*
X145726935Y-52524472D01*
X145723973Y-52527246D01*
X145593376Y-52641776D01*
X145586935Y-52646719D01*
X145444213Y-52742079D01*
X145437182Y-52746139D01*
X145283223Y-52822060D01*
X145275722Y-52825167D01*
X145113178Y-52880342D01*
X145105336Y-52882443D01*
X144936979Y-52915929D01*
X144928930Y-52916988D01*
X144755303Y-52928366D01*
X144751248Y-52928499D01*
X144673893Y-52928499D01*
X144673877Y-52928500D01*
X140184452Y-52928500D01*
X140117413Y-52908815D01*
X140096771Y-52892181D01*
X138673413Y-51468822D01*
X138639928Y-51407499D01*
X138641319Y-51349048D01*
X138659635Y-51280692D01*
X138679468Y-51054000D01*
X138659635Y-50827308D01*
X138614916Y-50660415D01*
X138600741Y-50607511D01*
X138600738Y-50607502D01*
X138598066Y-50601771D01*
X138504568Y-50401266D01*
X138374047Y-50214861D01*
X138374045Y-50214858D01*
X138213141Y-50053954D01*
X138026734Y-49923432D01*
X138026732Y-49923431D01*
X137820497Y-49827261D01*
X137820488Y-49827258D01*
X137659045Y-49784000D01*
X144082357Y-49784000D01*
X144102884Y-50005535D01*
X144102885Y-50005537D01*
X144163769Y-50219523D01*
X144163775Y-50219538D01*
X144262938Y-50418683D01*
X144262943Y-50418691D01*
X144397020Y-50596238D01*
X144561437Y-50746123D01*
X144561439Y-50746125D01*
X144750595Y-50863245D01*
X144750596Y-50863245D01*
X144750599Y-50863247D01*
X144958060Y-50943618D01*
X145176757Y-50984500D01*
X145176759Y-50984500D01*
X145399241Y-50984500D01*
X145399243Y-50984500D01*
X145617940Y-50943618D01*
X145825401Y-50863247D01*
X146014562Y-50746124D01*
X146166623Y-50607502D01*
X146178979Y-50596238D01*
X146192402Y-50578464D01*
X146313058Y-50418689D01*
X146412229Y-50219528D01*
X146473115Y-50005536D01*
X146493643Y-49784000D01*
X146490356Y-49748532D01*
X146473115Y-49562464D01*
X146473114Y-49562462D01*
X146460825Y-49519272D01*
X146412229Y-49348472D01*
X146412224Y-49348461D01*
X146313061Y-49149316D01*
X146313056Y-49149308D01*
X146178979Y-48971761D01*
X146014562Y-48821876D01*
X146014560Y-48821874D01*
X145825404Y-48704754D01*
X145825398Y-48704752D01*
X145617940Y-48624382D01*
X145399243Y-48583500D01*
X145176757Y-48583500D01*
X145011731Y-48614348D01*
X144958054Y-48624383D01*
X144879724Y-48654728D01*
X144823369Y-48660740D01*
X144823336Y-48661821D01*
X144815540Y-48661576D01*
X144658203Y-48676449D01*
X144658200Y-48676449D01*
X144658200Y-48676450D01*
X144658195Y-48676451D01*
X144509513Y-48729979D01*
X144509505Y-48729983D01*
X144378801Y-48818809D01*
X144378792Y-48818817D01*
X144274288Y-48937354D01*
X144274287Y-48937356D01*
X144202538Y-49078169D01*
X144168063Y-49232405D01*
X144170323Y-49304327D01*
X144163811Y-49342524D01*
X144165339Y-49342959D01*
X144102885Y-49562461D01*
X144102884Y-49562464D01*
X144082357Y-49783999D01*
X144082357Y-49784000D01*
X137659045Y-49784000D01*
X137600697Y-49768366D01*
X137600693Y-49768365D01*
X137600692Y-49768365D01*
X137600691Y-49768364D01*
X137600686Y-49768364D01*
X137374002Y-49748532D01*
X137373998Y-49748532D01*
X137147313Y-49768364D01*
X137147302Y-49768366D01*
X136927511Y-49827258D01*
X136927502Y-49827261D01*
X136721267Y-49923431D01*
X136721265Y-49923432D01*
X136534862Y-50053951D01*
X136377726Y-50211087D01*
X136316403Y-50244571D01*
X136246711Y-50239587D01*
X136190778Y-50197715D01*
X136169369Y-50151923D01*
X136168091Y-50146518D01*
X136154648Y-50110476D01*
X136117796Y-50011669D01*
X136117795Y-50011668D01*
X136117793Y-50011664D01*
X136031547Y-49896455D01*
X136031544Y-49896452D01*
X135916335Y-49810206D01*
X135916328Y-49810202D01*
X135781482Y-49759908D01*
X135781483Y-49759908D01*
X135721883Y-49753501D01*
X135721881Y-49753500D01*
X135721873Y-49753500D01*
X135721865Y-49753500D01*
X134509453Y-49753500D01*
X134442414Y-49733815D01*
X134421772Y-49717181D01*
X134415364Y-49710773D01*
X134415330Y-49710711D01*
X134273830Y-49569214D01*
X134043277Y-49385358D01*
X134043268Y-49385352D01*
X133793582Y-49228467D01*
X133793581Y-49228466D01*
X133527889Y-49100520D01*
X133527887Y-49100519D01*
X133331491Y-49031800D01*
X133249547Y-49003128D01*
X133249543Y-49003127D01*
X133249537Y-49003125D01*
X132962064Y-48937514D01*
X132962037Y-48937510D01*
X132669015Y-48904498D01*
X132669010Y-48904498D01*
X132521565Y-48904500D01*
X91762663Y-48904500D01*
X91731833Y-48900605D01*
X91731826Y-48900604D01*
X91731822Y-48900604D01*
X91711791Y-48900604D01*
X91692393Y-48899077D01*
X91684969Y-48897901D01*
X91672612Y-48895944D01*
X91672611Y-48895944D01*
X91626223Y-48900329D01*
X91620385Y-48900604D01*
X86418984Y-48900604D01*
X86399586Y-48899077D01*
X86392162Y-48897901D01*
X86379805Y-48895944D01*
X86379804Y-48895944D01*
X86333416Y-48900329D01*
X86327578Y-48900604D01*
X85373214Y-48900604D01*
X85372718Y-48900618D01*
X85266878Y-48900618D01*
X84973859Y-48933630D01*
X84973853Y-48933631D01*
X84686358Y-48999246D01*
X84686353Y-48999248D01*
X84408009Y-49096642D01*
X84408005Y-49096643D01*
X84142331Y-49224583D01*
X84142327Y-49224585D01*
X83928445Y-49358972D01*
X83861208Y-49377971D01*
X83839691Y-49375866D01*
X83693163Y-49348476D01*
X83677243Y-49345500D01*
X83454757Y-49345500D01*
X83236060Y-49386382D01*
X83104864Y-49437207D01*
X83028601Y-49466752D01*
X83028595Y-49466754D01*
X82839439Y-49583874D01*
X82839437Y-49583876D01*
X82675020Y-49733761D01*
X82540943Y-49911308D01*
X82540938Y-49911316D01*
X82441775Y-50110461D01*
X82441769Y-50110476D01*
X82380885Y-50324462D01*
X82380884Y-50324464D01*
X82360357Y-50545999D01*
X82360357Y-50546000D01*
X82380884Y-50767535D01*
X82380885Y-50767537D01*
X82441769Y-50981523D01*
X82441775Y-50981538D01*
X82540938Y-51180683D01*
X82540943Y-51180691D01*
X82675020Y-51358238D01*
X82796326Y-51468822D01*
X82831070Y-51500496D01*
X82839437Y-51508123D01*
X82839439Y-51508125D01*
X83028595Y-51625245D01*
X83028596Y-51625245D01*
X83028599Y-51625247D01*
X83236060Y-51705618D01*
X83454757Y-51746500D01*
X83454759Y-51746500D01*
X83677241Y-51746500D01*
X83677243Y-51746500D01*
X83895940Y-51705618D01*
X84103401Y-51625247D01*
X84292562Y-51508124D01*
X84456981Y-51358236D01*
X84591058Y-51180689D01*
X84690229Y-50981528D01*
X84751115Y-50767536D01*
X84771643Y-50546000D01*
X84758934Y-50408853D01*
X84772349Y-50340287D01*
X84820705Y-50289855D01*
X84827547Y-50286210D01*
X84884675Y-50258038D01*
X84892171Y-50254934D01*
X84908327Y-50249450D01*
X85054734Y-50199753D01*
X85062548Y-50197660D01*
X85230930Y-50164168D01*
X85238968Y-50163111D01*
X85412532Y-50151737D01*
X85416587Y-50151604D01*
X85490265Y-50151605D01*
X85490269Y-50151604D01*
X86049548Y-50151604D01*
X86116587Y-50171289D01*
X86137229Y-50187923D01*
X91680467Y-55731162D01*
X91683242Y-55734125D01*
X91797772Y-55864724D01*
X91802714Y-55871165D01*
X91898079Y-56013893D01*
X91902139Y-56020924D01*
X91978058Y-56174879D01*
X91981165Y-56182380D01*
X92036340Y-56344925D01*
X92038441Y-56352767D01*
X92071927Y-56521123D01*
X92072986Y-56529173D01*
X92084366Y-56702853D01*
X92084499Y-56706908D01*
X92084499Y-56784209D01*
X92084500Y-56784226D01*
X92084500Y-60725807D01*
X92064815Y-60792846D01*
X92012011Y-60838601D01*
X91942853Y-60848545D01*
X91902048Y-60835166D01*
X91834344Y-60798978D01*
X91641031Y-60740337D01*
X91440000Y-60720538D01*
X91238967Y-60740337D01*
X91238965Y-60740338D01*
X91194968Y-60753684D01*
X91125102Y-60754307D01*
X91071294Y-60722704D01*
X81482892Y-51134302D01*
X81449407Y-51072979D01*
X81448736Y-51027258D01*
X81448586Y-51027245D01*
X81448715Y-51025846D01*
X81448686Y-51023826D01*
X81449110Y-51021551D01*
X81449115Y-51021536D01*
X81469643Y-50800000D01*
X81449115Y-50578464D01*
X81388229Y-50364472D01*
X81376990Y-50341901D01*
X81289061Y-50165316D01*
X81289056Y-50165308D01*
X81154979Y-49987761D01*
X80990563Y-49837877D01*
X80990562Y-49837876D01*
X80948222Y-49811660D01*
X80901587Y-49759631D01*
X80889500Y-49706233D01*
X80889500Y-43932880D01*
X82912672Y-43932880D01*
X83028821Y-44004797D01*
X83028822Y-44004798D01*
X83236195Y-44085134D01*
X83454807Y-44126000D01*
X83677193Y-44126000D01*
X83895809Y-44085133D01*
X84103168Y-44004801D01*
X84103181Y-44004795D01*
X84219326Y-43932879D01*
X83566001Y-43279553D01*
X83566000Y-43279553D01*
X82912672Y-43932879D01*
X82912672Y-43932880D01*
X80889500Y-43932880D01*
X80889500Y-42926000D01*
X82360859Y-42926000D01*
X82381378Y-43147439D01*
X82442240Y-43361350D01*
X82541369Y-43560428D01*
X82557137Y-43581308D01*
X82557138Y-43581308D01*
X83183145Y-42955302D01*
X83212372Y-42955302D01*
X83241047Y-43068538D01*
X83304936Y-43166327D01*
X83397115Y-43238072D01*
X83507595Y-43276000D01*
X83595005Y-43276000D01*
X83681216Y-43261614D01*
X83783947Y-43206019D01*
X83863060Y-43120079D01*
X83909982Y-43013108D01*
X83917200Y-42926000D01*
X83919553Y-42926000D01*
X84574861Y-43581308D01*
X84590631Y-43560425D01*
X84590633Y-43560422D01*
X84689759Y-43361350D01*
X84743952Y-43170880D01*
X144634672Y-43170880D01*
X144750821Y-43242797D01*
X144750822Y-43242798D01*
X144958195Y-43323134D01*
X145176807Y-43364000D01*
X145399193Y-43364000D01*
X145617809Y-43323133D01*
X145825168Y-43242801D01*
X145825181Y-43242795D01*
X145941326Y-43170879D01*
X145288001Y-42517553D01*
X145288000Y-42517553D01*
X144634672Y-43170879D01*
X144634672Y-43170880D01*
X84743952Y-43170880D01*
X84750621Y-43147439D01*
X84771141Y-42926000D01*
X84771141Y-42925999D01*
X84750621Y-42704560D01*
X84689759Y-42490649D01*
X84590635Y-42291580D01*
X84590630Y-42291572D01*
X84574860Y-42270690D01*
X83919553Y-42925999D01*
X83919553Y-42926000D01*
X83917200Y-42926000D01*
X83919628Y-42896698D01*
X83890953Y-42783462D01*
X83827064Y-42685673D01*
X83734885Y-42613928D01*
X83624405Y-42576000D01*
X83536995Y-42576000D01*
X83450784Y-42590386D01*
X83348053Y-42645981D01*
X83268940Y-42731921D01*
X83222018Y-42838892D01*
X83212372Y-42955302D01*
X83183145Y-42955302D01*
X83212447Y-42926000D01*
X82557138Y-42270691D01*
X82557137Y-42270691D01*
X82541368Y-42291574D01*
X82442240Y-42490649D01*
X82381378Y-42704560D01*
X82360859Y-42925999D01*
X82360859Y-42926000D01*
X80889500Y-42926000D01*
X80889500Y-42495765D01*
X80909185Y-42428726D01*
X80948220Y-42390340D01*
X80990562Y-42364124D01*
X81154981Y-42214236D01*
X81289058Y-42036689D01*
X81347601Y-41919119D01*
X82912671Y-41919119D01*
X83566000Y-42572447D01*
X83566001Y-42572447D01*
X83974447Y-42164000D01*
X144082859Y-42164000D01*
X144103378Y-42385439D01*
X144164240Y-42599350D01*
X144263369Y-42798428D01*
X144279137Y-42819308D01*
X144279138Y-42819308D01*
X144905145Y-42193302D01*
X144934372Y-42193302D01*
X144963047Y-42306538D01*
X145026936Y-42404327D01*
X145119115Y-42476072D01*
X145229595Y-42514000D01*
X145317005Y-42514000D01*
X145403216Y-42499614D01*
X145505947Y-42444019D01*
X145585060Y-42358079D01*
X145631982Y-42251108D01*
X145639200Y-42164000D01*
X145641553Y-42164000D01*
X146296861Y-42819308D01*
X146312631Y-42798425D01*
X146312633Y-42798422D01*
X146411759Y-42599350D01*
X146472621Y-42385439D01*
X146493141Y-42164000D01*
X146493141Y-42163999D01*
X146472621Y-41942560D01*
X146411759Y-41728649D01*
X146312635Y-41529580D01*
X146312630Y-41529572D01*
X146296860Y-41508690D01*
X145641553Y-42163999D01*
X145641553Y-42164000D01*
X145639200Y-42164000D01*
X145641628Y-42134698D01*
X145612953Y-42021462D01*
X145549064Y-41923673D01*
X145456885Y-41851928D01*
X145346405Y-41814000D01*
X145258995Y-41814000D01*
X145172784Y-41828386D01*
X145070053Y-41883981D01*
X144990940Y-41969921D01*
X144944018Y-42076892D01*
X144934372Y-42193302D01*
X144905145Y-42193302D01*
X144934447Y-42164000D01*
X144279138Y-41508691D01*
X144279137Y-41508691D01*
X144263368Y-41529574D01*
X144164240Y-41728649D01*
X144103378Y-41942560D01*
X144082859Y-42163999D01*
X144082859Y-42164000D01*
X83974447Y-42164000D01*
X84219327Y-41919119D01*
X84103178Y-41847202D01*
X84103177Y-41847201D01*
X83895804Y-41766865D01*
X83677193Y-41726000D01*
X83454807Y-41726000D01*
X83236195Y-41766865D01*
X83028824Y-41847200D01*
X83028823Y-41847201D01*
X82912671Y-41919119D01*
X81347601Y-41919119D01*
X81388229Y-41837528D01*
X81449115Y-41623536D01*
X81469643Y-41402000D01*
X81449115Y-41180464D01*
X81442473Y-41157119D01*
X144634671Y-41157119D01*
X145288000Y-41810447D01*
X145288001Y-41810447D01*
X145941327Y-41157119D01*
X145825178Y-41085202D01*
X145825177Y-41085201D01*
X145617804Y-41004865D01*
X145399193Y-40964000D01*
X145176807Y-40964000D01*
X144958195Y-41004865D01*
X144750824Y-41085200D01*
X144750823Y-41085201D01*
X144634671Y-41157119D01*
X81442473Y-41157119D01*
X81388229Y-40966472D01*
X81388224Y-40966461D01*
X81289061Y-40767316D01*
X81289056Y-40767308D01*
X81154979Y-40589761D01*
X80990562Y-40439876D01*
X80990560Y-40439874D01*
X80801404Y-40322754D01*
X80801398Y-40322752D01*
X80593940Y-40242382D01*
X80375243Y-40201500D01*
X80152757Y-40201500D01*
X79934060Y-40242382D01*
X79802864Y-40293207D01*
X79726601Y-40322752D01*
X79726595Y-40322754D01*
X79537439Y-40439874D01*
X79537437Y-40439876D01*
X79373020Y-40589761D01*
X79238943Y-40767308D01*
X79238938Y-40767316D01*
X79139775Y-40966461D01*
X79139769Y-40966476D01*
X79078885Y-41180462D01*
X79078884Y-41180464D01*
X79058357Y-41401999D01*
X79058357Y-41402000D01*
X79078884Y-41623535D01*
X79078885Y-41623537D01*
X79139769Y-41837523D01*
X79139775Y-41837538D01*
X79238938Y-42036683D01*
X79238943Y-42036691D01*
X79373020Y-42214238D01*
X79537433Y-42364120D01*
X79537435Y-42364122D01*
X79537437Y-42364123D01*
X79537438Y-42364124D01*
X79579778Y-42390339D01*
X79626412Y-42442364D01*
X79638500Y-42495765D01*
X79638500Y-49706233D01*
X79618815Y-49773272D01*
X79579778Y-49811660D01*
X79537436Y-49837877D01*
X79373020Y-49987761D01*
X79238943Y-50165308D01*
X79238938Y-50165316D01*
X79139775Y-50364461D01*
X79139769Y-50364476D01*
X79078885Y-50578462D01*
X79078884Y-50578464D01*
X79058357Y-50799999D01*
X79058357Y-50800000D01*
X78486000Y-50800000D01*
X78486000Y-29972006D01*
X78863700Y-29972006D01*
X78882864Y-30203297D01*
X78882866Y-30203308D01*
X78939842Y-30428300D01*
X79033075Y-30640848D01*
X79160016Y-30835147D01*
X79160019Y-30835151D01*
X79160021Y-30835153D01*
X79317216Y-31005913D01*
X79317219Y-31005915D01*
X79317222Y-31005918D01*
X79500365Y-31148464D01*
X79500376Y-31148471D01*
X79578517Y-31190759D01*
X79628108Y-31239978D01*
X79643500Y-31299814D01*
X79643500Y-32685137D01*
X79623815Y-32752176D01*
X79584778Y-32790564D01*
X79537436Y-32819877D01*
X79373020Y-32969761D01*
X79238943Y-33147308D01*
X79238938Y-33147316D01*
X79139775Y-33346461D01*
X79139769Y-33346476D01*
X79078885Y-33560462D01*
X79078884Y-33560464D01*
X79058357Y-33781999D01*
X79058357Y-33782000D01*
X79078884Y-34003535D01*
X79078885Y-34003537D01*
X79139769Y-34217523D01*
X79139775Y-34217538D01*
X79238938Y-34416683D01*
X79238943Y-34416691D01*
X79373020Y-34594238D01*
X79537437Y-34744123D01*
X79537439Y-34744125D01*
X79726595Y-34861245D01*
X79726596Y-34861245D01*
X79726599Y-34861247D01*
X79934060Y-34941618D01*
X80152757Y-34982500D01*
X80152759Y-34982500D01*
X80375241Y-34982500D01*
X80375243Y-34982500D01*
X80593940Y-34941618D01*
X80801401Y-34861247D01*
X80990562Y-34744124D01*
X81154981Y-34594236D01*
X81289058Y-34416689D01*
X81388229Y-34217528D01*
X81449115Y-34003536D01*
X81469643Y-33782000D01*
X81449115Y-33560464D01*
X81388229Y-33346472D01*
X81388224Y-33346461D01*
X81289061Y-33147316D01*
X81289056Y-33147308D01*
X81154979Y-32969761D01*
X80990563Y-32819877D01*
X80990562Y-32819876D01*
X80953222Y-32796756D01*
X80906587Y-32744728D01*
X80894500Y-32691329D01*
X80894500Y-31299814D01*
X80914185Y-31232775D01*
X80959483Y-31190759D01*
X80990018Y-31174234D01*
X81037626Y-31148470D01*
X81220784Y-31005913D01*
X81229511Y-30996432D01*
X81289394Y-30960441D01*
X81359232Y-30962538D01*
X81416850Y-31002060D01*
X81436924Y-31037080D01*
X81465645Y-31114086D01*
X81465649Y-31114093D01*
X81551809Y-31229187D01*
X81551812Y-31229190D01*
X81666906Y-31315350D01*
X81666913Y-31315354D01*
X81801620Y-31365596D01*
X81801627Y-31365598D01*
X81861155Y-31371999D01*
X81861172Y-31372000D01*
X82559000Y-31372000D01*
X82559000Y-30346189D01*
X82611547Y-30382016D01*
X82741173Y-30422000D01*
X82842724Y-30422000D01*
X82943138Y-30406865D01*
X83059000Y-30351068D01*
X83059000Y-31372000D01*
X83756828Y-31372000D01*
X83756844Y-31371999D01*
X83816372Y-31365598D01*
X83816379Y-31365596D01*
X83951086Y-31315354D01*
X83951093Y-31315350D01*
X84066187Y-31229190D01*
X84066190Y-31229187D01*
X84152350Y-31114093D01*
X84152354Y-31114086D01*
X84202596Y-30979379D01*
X84202598Y-30979372D01*
X84208999Y-30919844D01*
X84209000Y-30919827D01*
X84209000Y-30222000D01*
X83184278Y-30222000D01*
X83232625Y-30138260D01*
X83262810Y-30006008D01*
X83252673Y-29870735D01*
X83222310Y-29793373D01*
X112045723Y-29793373D01*
X112075881Y-30093160D01*
X112075882Y-30093162D01*
X112145728Y-30386252D01*
X112145730Y-30386259D01*
X112145731Y-30386261D01*
X112151215Y-30400500D01*
X112254020Y-30667427D01*
X112254024Y-30667436D01*
X112398825Y-30931665D01*
X112398829Y-30931671D01*
X112558568Y-31148470D01*
X112577554Y-31174238D01*
X112577561Y-31174245D01*
X112787019Y-31390823D01*
X113023478Y-31577553D01*
X113023480Y-31577554D01*
X113023485Y-31577558D01*
X113282730Y-31731109D01*
X113560128Y-31848736D01*
X113850729Y-31928340D01*
X114149347Y-31968500D01*
X114149351Y-31968500D01*
X114375252Y-31968500D01*
X114539164Y-31957526D01*
X114600634Y-31953412D01*
X114895903Y-31893396D01*
X115180537Y-31794560D01*
X115449459Y-31658668D01*
X115697869Y-31488144D01*
X115921333Y-31286032D01*
X116115865Y-31055939D01*
X116277993Y-30801970D01*
X116404823Y-30528658D01*
X116494093Y-30240879D01*
X116544209Y-29943770D01*
X116554277Y-29642631D01*
X116524118Y-29342838D01*
X116454269Y-29049739D01*
X116345977Y-28768566D01*
X116201175Y-28504335D01*
X116022446Y-28261762D01*
X115812980Y-28045176D01*
X115689742Y-27947856D01*
X115576521Y-27858446D01*
X115576517Y-27858443D01*
X115576515Y-27858442D01*
X115317270Y-27704891D01*
X115039872Y-27587264D01*
X115039863Y-27587261D01*
X114749272Y-27507660D01*
X114674616Y-27497620D01*
X114450653Y-27467500D01*
X114224756Y-27467500D01*
X114224748Y-27467500D01*
X113999368Y-27482587D01*
X113999359Y-27482589D01*
X113704094Y-27542604D01*
X113419464Y-27641439D01*
X113419459Y-27641441D01*
X113150546Y-27777328D01*
X112902125Y-27947860D01*
X112678665Y-28149969D01*
X112484132Y-28380064D01*
X112322006Y-28634030D01*
X112322005Y-28634032D01*
X112195374Y-28906918D01*
X112195177Y-28907342D01*
X112182698Y-28947572D01*
X112105907Y-29195118D01*
X112055791Y-29492230D01*
X112045723Y-29793373D01*
X83222310Y-29793373D01*
X83203113Y-29744459D01*
X83185203Y-29722000D01*
X84209000Y-29722000D01*
X84209000Y-29024172D01*
X84208999Y-29024155D01*
X84202598Y-28964627D01*
X84202596Y-28964620D01*
X84152354Y-28829913D01*
X84152350Y-28829906D01*
X84066190Y-28714812D01*
X84066187Y-28714809D01*
X83951093Y-28628649D01*
X83951086Y-28628645D01*
X83816379Y-28578403D01*
X83816372Y-28578401D01*
X83756844Y-28572000D01*
X83059000Y-28572000D01*
X83059000Y-29597810D01*
X83006453Y-29561984D01*
X82876827Y-29522000D01*
X82775276Y-29522000D01*
X82674862Y-29537135D01*
X82559000Y-29592931D01*
X82559000Y-28572000D01*
X81861155Y-28572000D01*
X81801627Y-28578401D01*
X81801620Y-28578403D01*
X81666913Y-28628645D01*
X81666906Y-28628649D01*
X81551812Y-28714809D01*
X81551809Y-28714812D01*
X81465649Y-28829906D01*
X81465646Y-28829911D01*
X81436924Y-28906920D01*
X81395052Y-28962853D01*
X81329588Y-28987270D01*
X81261315Y-28972418D01*
X81229514Y-28947571D01*
X81220784Y-28938087D01*
X81220779Y-28938083D01*
X81220777Y-28938081D01*
X81037634Y-28795535D01*
X81037628Y-28795531D01*
X80833504Y-28685064D01*
X80833495Y-28685061D01*
X80613984Y-28609702D01*
X80426404Y-28578401D01*
X80385049Y-28571500D01*
X80152951Y-28571500D01*
X80111596Y-28578401D01*
X79924015Y-28609702D01*
X79704504Y-28685061D01*
X79704495Y-28685064D01*
X79500371Y-28795531D01*
X79500365Y-28795535D01*
X79317222Y-28938081D01*
X79317219Y-28938084D01*
X79317216Y-28938086D01*
X79317216Y-28938087D01*
X79292791Y-28964620D01*
X79160016Y-29108852D01*
X79033075Y-29303151D01*
X78939842Y-29515699D01*
X78882866Y-29740691D01*
X78882864Y-29740702D01*
X78863700Y-29971993D01*
X78863700Y-29972006D01*
X78486000Y-29972006D01*
X78486000Y-27302000D01*
X78505685Y-27234961D01*
X78558489Y-27189206D01*
X78610000Y-27178000D01*
X149990000Y-27178000D01*
X150057039Y-27197685D01*
G37*
G04 #@! TD.AperFunction*
M02*
