<?xml version="1.0" standalone="no"?>
<!DOCTYPE svg PUBLIC "-//W3C//DTD SVG 20010904//EN"
 "http://www.w3.org/TR/2001/REC-SVG-20010904/DTD/svg10.dtd">
<svg version="1.0" xmlns="http://www.w3.org/2000/svg"
 width="1024.000000pt" height="1024.000000pt" viewBox="0 0 1024.000000 1024.000000"
 preserveAspectRatio="xMidYMid meet">

<g transform="translate(0.000000,1024.000000) scale(0.100000,-0.100000)"
fill="#000000" stroke="none">
<path d="M4850 8580 c-93 -18 -285 -75 -305 -90 -5 -4 -28 -13 -50 -20 -22 -7
-71 -30 -110 -50 -450 -237 -765 -650 -867 -1138 -20 -93 -23 -136 -22 -322 0
-207 1 -219 31 -330 62 -235 153 -422 266 -552 150 -170 147 -166 147 -216 0
-93 -73 -187 -173 -222 -68 -24 -106 -25 -177 -4 -89 26 -142 73 -187 164
l-28 55 -5 290 c-6 317 -8 327 -74 425 -32 48 -327 347 -387 393 -76 58 -184
20 -209 -74 -21 -77 -8 -98 196 -299 102 -101 190 -195 195 -208 5 -13 9 -139
9 -281 0 -235 2 -263 21 -322 37 -113 78 -180 158 -260 89 -90 163 -130 277
-154 238 -49 444 36 576 240 58 90 82 178 76 285 -7 115 -34 172 -127 270
-258 269 -369 650 -302 1042 22 127 54 224 113 343 150 302 404 548 698 678
429 189 898 141 1283 -130 171 -120 367 -338 448 -498 142 -278 189 -581 133
-850 -48 -231 -142 -415 -294 -575 -79 -84 -103 -124 -125 -207 -42 -163 7
-318 144 -453 89 -88 154 -124 266 -146 254 -50 511 75 624 303 56 112 61 142
61 421 0 189 3 261 13 285 8 18 95 113 195 213 146 146 182 188 191 220 17 64
-9 132 -62 164 -38 23 -97 26 -135 6 -27 -14 -263 -257 -355 -365 -26 -31 -60
-81 -75 -111 l-27 -55 -5 -295 -5 -295 -34 -63 c-41 -76 -95 -125 -168 -152
-137 -51 -284 4 -347 132 -41 81 -36 116 27 188 120 139 175 213 218 292 214
388 245 857 83 1280 -201 528 -637 902 -1208 1040 -122 30 -455 34 -586 8z"/>
<path d="M5090 8040 c-72 -13 -112 -59 -118 -135 -5 -61 13 -103 58 -135 66
-47 147 -35 205 33 28 33 35 49 35 84 0 100 -82 170 -180 153z"/>
<path d="M2332 6992 c-33 -5 -88 -64 -96 -102 -10 -51 -7 -73 12 -109 51 -94
194 -93 252 1 36 59 17 148 -41 190 -24 18 -86 28 -127 20z"/>
<path d="M7803 6993 c-28 -6 -82 -61 -90 -91 -3 -13 -3 -46 0 -75 4 -44 10
-56 42 -84 33 -28 46 -33 89 -33 91 0 147 56 148 146 1 45 -32 103 -71 124
-23 12 -89 20 -118 13z"/>
<path d="M4412 6785 c-91 -28 -156 -112 -168 -217 -13 -110 56 -224 161 -264
88 -33 204 -4 271 68 53 56 69 95 68 174 0 58 -4 78 -28 117 -33 57 -91 102
-159 122 -61 18 -88 18 -145 0z"/>
<path d="M5655 6785 c-99 -37 -167 -136 -166 -243 0 -68 15 -112 56 -160 152
-180 445 -73 445 163 -1 98 -52 185 -133 224 -57 28 -150 35 -202 16z"/>
<path d="M2383 6528 c-227 -26 -391 -249 -354 -484 21 -135 110 -257 228 -316
57 -28 79 -33 158 -36 63 -3 109 0 142 10 l50 15 12 -50 c56 -244 240 -496
468 -644 l104 -68 -76 -3 c-110 -4 -163 13 -415 136 -354 172 -400 193 -479
213 -147 38 -290 17 -399 -56 -162 -110 -231 -359 -146 -533 34 -69 119 -161
181 -194 138 -75 331 -52 432 51 55 56 69 106 47 166 -20 51 -54 82 -101 91
-36 7 -62 -4 -119 -50 -26 -21 -47 -29 -76 -29 -149 0 -179 220 -40 291 81 42
102 35 540 -181 295 -145 366 -172 484 -187 143 -17 252 3 466 87 147 58 252
94 258 88 10 -10 -102 -220 -140 -261 -44 -48 -172 -115 -408 -214 -69 -29
-171 -72 -227 -96 -56 -24 -104 -44 -107 -44 -6 0 -171 -76 -211 -97 -83 -44
-207 -134 -262 -189 -68 -70 -217 -287 -263 -387 -71 -151 -78 -327 -18 -466
27 -64 111 -164 166 -200 178 -114 421 -88 578 61 99 93 154 227 154 371 l0
84 68 31 c119 54 161 72 166 72 2 0 35 14 73 31 126 56 188 83 295 125 47 18
113 45 145 59 32 15 67 30 78 34 196 82 332 176 420 293 67 89 93 145 205 441
55 144 115 294 135 332 48 95 49 150 3 201 -56 60 -145 64 -201 8 -34 -33 -58
-87 -127 -279 -97 -267 -189 -485 -225 -535 -38 -52 -100 -106 -158 -139 -35
-19 -550 -241 -560 -241 -3 0 -34 -13 -69 -29 -35 -16 -103 -46 -153 -66 -360
-147 -445 -212 -405 -309 37 -91 41 -112 35 -162 -13 -109 -93 -184 -195 -184
-66 0 -109 19 -147 64 -53 65 -67 154 -37 243 33 98 226 358 316 425 67 50 76
55 358 177 129 57 249 109 265 116 17 7 68 30 115 50 340 148 397 192 497 391
33 65 80 164 103 219 62 143 105 205 161 232 95 46 130 123 89 201 -53 99
-162 98 -270 -3 -37 -35 -130 -74 -202 -86 -82 -14 -234 -4 -329 20 -198 52
-414 233 -513 429 -62 123 -68 156 -76 402 -5 156 -12 240 -23 273 -60 188
-257 309 -464 285z m135 -288 c66 -41 93 -140 57 -210 -36 -70 -173 -93 -231
-39 -56 52 -73 139 -38 197 39 67 145 93 212 52z"/>
<path d="M7675 6516 c-44 -14 -131 -58 -155 -78 -44 -38 -102 -117 -121 -167
-20 -50 -23 -82 -29 -291 -6 -206 -10 -243 -29 -299 -45 -129 -100 -214 -219
-334 -159 -162 -375 -247 -594 -234 -154 10 -206 30 -333 131 -98 79 -235 20
-235 -101 0 -53 37 -98 114 -142 59 -33 86 -71 145 -201 133 -292 170 -359
235 -425 67 -68 146 -112 416 -228 392 -168 621 -272 670 -302 75 -47 189
-186 293 -358 70 -115 82 -208 38 -295 -23 -46 -46 -67 -94 -87 -110 -46 -232
12 -272 129 -19 59 -14 107 22 188 l25 57 -21 35 c-44 70 -89 101 -255 171
-56 24 -137 58 -181 77 -259 112 -512 220 -590 253 -174 72 -259 129 -314 209
-16 23 -54 106 -86 186 -255 646 -237 606 -286 641 -57 41 -156 20 -192 -40
-32 -55 -32 -96 2 -155 16 -30 56 -121 86 -203 105 -275 186 -468 226 -535 73
-124 208 -243 345 -304 32 -15 92 -42 132 -60 41 -19 76 -34 78 -34 3 0 25 -9
50 -20 24 -12 106 -47 182 -79 75 -32 211 -91 302 -131 91 -39 170 -74 176
-77 8 -3 13 -44 16 -111 3 -102 5 -111 47 -197 92 -188 240 -285 437 -285 325
0 532 317 431 660 -31 106 -195 363 -299 469 -123 127 -186 161 -680 372 -192
82 -376 163 -409 180 -101 50 -153 115 -236 292 l-22 47 27 0 c15 0 65 -16
112 -36 304 -126 406 -150 571 -134 116 11 174 34 529 208 168 82 328 157 355
167 122 41 235 -34 235 -157 0 -60 -30 -105 -86 -129 -54 -24 -86 -17 -140 31
-44 38 -70 44 -118 28 -45 -15 -74 -49 -86 -102 -38 -168 215 -296 435 -221
107 37 206 142 246 262 18 55 21 80 16 152 -9 150 -69 260 -185 338 -82 55
-144 73 -254 73 -101 0 -181 -23 -316 -89 -45 -23 -85 -41 -88 -41 -3 0 -97
-45 -207 -101 -254 -126 -291 -139 -407 -139 -49 0 -90 4 -90 8 0 5 24 22 53
37 241 130 417 336 501 587 14 42 26 88 26 102 0 35 10 38 66 21 185 -56 394
35 481 210 52 104 57 272 10 376 -46 103 -146 190 -257 223 -64 19 -188 20
-245 2z m209 -283 c29 -20 66 -89 66 -121 0 -78 -75 -152 -155 -152 -91 0
-155 60 -155 145 0 127 142 202 244 128z"/>
<path d="M5051 6313 c-68 -34 -96 -116 -62 -185 45 -95 163 -107 240 -24 36
38 40 110 9 156 -43 64 -120 86 -187 53z"/>
<path d="M4625 6048 c-43 -15 -56 -28 -76 -73 -27 -62 -7 -145 45 -178 95 -62
217 3 218 117 1 55 -30 108 -76 130 -38 18 -68 19 -111 4z"/>
<path d="M5500 6038 c-73 -37 -99 -116 -62 -187 32 -65 95 -89 175 -68 38 10
87 80 87 126 0 110 -104 177 -200 129z"/>
<path d="M4823 5009 c-17 -11 -42 -41 -55 -67 -22 -45 -23 -60 -31 -390 -11
-463 3 -429 -314 -754 -290 -296 -293 -303 -293 -713 0 -344 -10 -384 -117
-512 -50 -60 -233 -187 -291 -202 -153 -42 -265 135 -162 253 51 57 123 63
192 15 50 -36 130 -15 166 44 60 95 -18 217 -158 247 -244 52 -455 -95 -501
-350 -32 -180 71 -370 244 -451 165 -77 344 -36 558 125 123 93 209 189 257
289 66 135 72 176 72 483 0 364 -10 336 183 531 83 84 154 153 157 153 4 0 7
-312 6 -692 l-1 -693 -34 -80 c-91 -213 -57 -417 94 -571 71 -73 137 -107 241
-125 101 -17 184 -5 280 41 99 48 167 117 219 223 31 62 37 86 42 162 6 107
-5 178 -47 281 l-30 76 0 690 c0 448 3 688 10 686 23 -8 284 -277 303 -313 21
-38 22 -57 28 -360 5 -320 5 -320 34 -405 51 -149 154 -277 320 -396 152 -108
279 -153 399 -139 215 24 369 178 383 384 13 189 -75 348 -235 424 -63 30 -74
32 -177 32 -95 0 -116 -3 -150 -22 -83 -46 -115 -93 -115 -167 0 -43 4 -53 39
-87 48 -49 95 -53 153 -13 99 69 218 -2 218 -130 0 -110 -103 -179 -211 -141
-56 20 -206 125 -268 188 -29 28 -66 81 -84 117 l-32 64 -6 326 c-7 456 -3
445 -285 716 -189 182 -261 268 -296 354 -21 52 -23 74 -28 400 l-5 346 -26
49 c-33 65 -77 95 -141 95 -28 0 -59 -7 -74 -16 -52 -35 -68 -110 -39 -181 13
-31 15 -201 15 -1319 l0 -1283 41 -78 c39 -74 41 -81 36 -146 -6 -85 -40 -141
-107 -174 -75 -39 -147 -28 -208 30 -45 43 -62 87 -62 162 0 53 6 75 35 131
l35 67 0 1282 c0 1257 0 1284 20 1326 25 56 25 96 0 136 -38 63 -133 83 -197
42z"/>
<path d="M2485 4542 c-92 -31 -134 -146 -82 -222 52 -78 159 -90 223 -26 55
55 62 124 19 190 -31 46 -109 75 -160 58z"/>
<path d="M7634 4526 c-56 -35 -78 -79 -72 -145 8 -79 68 -131 151 -131 66 0
142 74 141 138 -1 121 -123 198 -220 138z"/>
<path d="M3612 3479 c-71 -46 -93 -153 -46 -223 78 -115 263 -69 280 70 7 50
-28 120 -75 151 -45 30 -114 31 -159 2z"/>
<path d="M6472 3483 c-49 -24 -75 -68 -80 -132 -4 -66 18 -109 70 -141 61 -37
158 -17 200 41 97 130 -45 304 -190 232z"/>
<path d="M2476 3399 c-29 -23 -56 -68 -56 -94 0 -41 34 -88 76 -107 39 -17 47
-17 76 -5 47 20 70 50 75 100 6 53 -7 81 -50 107 -42 26 -88 25 -121 -1z"/>
<path d="M7654 3410 c-36 -14 -74 -69 -74 -105 0 -71 45 -115 117 -115 45 0
77 20 98 60 49 94 -44 199 -141 160z"/>
<path d="M3146 3160 c-89 -27 -128 -150 -70 -220 114 -135 318 -18 250 144
-26 61 -110 97 -180 76z"/>
<path d="M6973 3149 c-50 -26 -73 -59 -79 -117 -12 -113 108 -187 215 -132 71
36 93 133 46 202 -14 21 -35 42 -46 48 -37 20 -95 20 -136 -1z"/>
<path d="M5083 2129 c-46 -13 -73 -53 -73 -106 0 -38 5 -50 34 -79 38 -38 77
-44 126 -19 32 17 60 61 60 95 0 39 -31 88 -65 104 -37 18 -37 18 -82 5z"/>
</g>
</svg>
